<svg xmlns="http://www.w3.org/2000/svg" width="48" height="48" viewBox="0 0 48 48" fill="none">
  <defs>
    <linearGradient id="g" x1="8" y1="6" x2="40" y2="40" gradientUnits="userSpaceOnUse">
      <stop stop-color="#1E88E5"/>
      <stop offset="0.5" stop-color="#38B6FF"/>
      <stop offset="1" stop-color="#7DD3FF"/>
    </linearGradient>
  </defs>
  <rect width="48" height="48" rx="11" fill="#070B14"/>
  <g stroke="url(#g)" stroke-width="1.6" stroke-linecap="round" opacity="0.9">
    <path d="M24 4v3"/>
    <path d="M9 10l2.2 2.2"/>
    <path d="M39 10l-2.2 2.2"/>
    <path d="M5 24h2.8"/>
    <path d="M40.2 24H43"/>
  </g>
  <path d="M16 30.5c-2.6-2-4.3-5.2-4.3-8.8C11.7 14.9 17.2 9.5 24 9.5s12.3 5.4 12.3 12.2c0 3.6-1.7 6.8-4.3 8.8-1.2.9-1.9 2.3-1.9 3.8v.7H17.9v-.7c0-1.5-.7-2.9-1.9-3.8Z" stroke="url(#g)" stroke-width="1.8" fill="rgba(56,182,255,0.08)"/>
  <path d="M24 14.5v8M24 22.5l-3-2.5M24 22.5l3-2.5" stroke="#7DD3FF" stroke-width="1.5" stroke-linecap="round"/>
  <path d="M27 15.6c2 .4 3.4 2 3.4 3.9 0 1-.4 1.9-1 2.6.7.6 1.1 1.5 1.1 2.5 0 1.8-1.4 3.3-3.2 3.7" stroke="#38B6FF" stroke-width="1.4" stroke-linecap="round" fill="none"/>
  <path d="M19 39.5h10M20.5 42.5h7" stroke="url(#g)" stroke-width="1.8" stroke-linecap="round"/>
</svg>
