<svg xmlns="http://www.w3.org/2000/svg" width="1200" height="630" viewBox="0 0 1200 630" fill="none">
  <defs>
    <linearGradient id="bg" x1="0" y1="0" x2="1200" y2="630" gradientUnits="userSpaceOnUse">
      <stop stop-color="#070B14"/>
      <stop offset="1" stop-color="#0F1729"/>
    </linearGradient>
    <linearGradient id="g" x1="80" y1="180" x2="280" y2="420" gradientUnits="userSpaceOnUse">
      <stop stop-color="#1E88E5"/>
      <stop offset="0.5" stop-color="#38B6FF"/>
      <stop offset="1" stop-color="#7DD3FF"/>
    </linearGradient>
    <radialGradient id="glow" cx="0.78" cy="0.1" r="0.7">
      <stop stop-color="#38B6FF" stop-opacity="0.22"/>
      <stop offset="1" stop-color="#38B6FF" stop-opacity="0"/>
    </radialGradient>
    <linearGradient id="text" x1="80" y1="0" x2="900" y2="0" gradientUnits="userSpaceOnUse">
      <stop stop-color="#E6EDF5"/>
      <stop offset="1" stop-color="#7DD3FF"/>
    </linearGradient>
  </defs>
  <rect width="1200" height="630" fill="url(#bg)"/>
  <rect width="1200" height="630" fill="url(#glow)"/>

  <!-- bulb-brain mark -->
  <g transform="translate(80,150) scale(2.6)">
    <g stroke="url(#g)" stroke-width="1.6" stroke-linecap="round" opacity="0.9">
      <path d="M24 4v3"/><path d="M9 10l2.2 2.2"/><path d="M39 10l-2.2 2.2"/><path d="M5 24h2.8"/><path d="M40.2 24H43"/>
    </g>
    <path d="M16 30.5c-2.6-2-4.3-5.2-4.3-8.8C11.7 14.9 17.2 9.5 24 9.5s12.3 5.4 12.3 12.2c0 3.6-1.7 6.8-4.3 8.8-1.2.9-1.9 2.3-1.9 3.8v.7H17.9v-.7c0-1.5-.7-2.9-1.9-3.8Z" stroke="url(#g)" stroke-width="1.8" fill="rgba(56,182,255,0.08)"/>
    <path d="M24 14.5v8M24 22.5l-3-2.5M24 22.5l3-2.5" stroke="#7DD3FF" stroke-width="1.5" stroke-linecap="round"/>
    <path d="M27 15.6c2 .4 3.4 2 3.4 3.9 0 1-.4 1.9-1 2.6.7.6 1.1 1.5 1.1 2.5 0 1.8-1.4 3.3-3.2 3.7" stroke="#38B6FF" stroke-width="1.4" stroke-linecap="round" fill="none"/>
    <path d="M19 39.5h10M20.5 42.5h7" stroke="url(#g)" stroke-width="1.8" stroke-linecap="round"/>
  </g>

  <text x="82" y="380" font-family="Inter, system-ui, sans-serif" font-size="34" font-weight="700" letter-spacing="6" fill="#E6EDF5">WEBNETIC</text>
  <text x="82" y="412" font-family="Inter, system-ui, sans-serif" font-size="18" letter-spacing="8" fill="#8B95A7">DIGITAL SOLUTIONS</text>

  <text x="80" y="500" font-family="Inter, system-ui, sans-serif" font-size="52" font-weight="700" fill="url(#text)">Intelligent websites that rank,</text>
  <text x="80" y="560" font-family="Inter, system-ui, sans-serif" font-size="52" font-weight="700" fill="url(#text)">convert, and run themselves.</text>

  <text x="1120" y="600" text-anchor="end" font-family="Inter, system-ui, sans-serif" font-size="22" fill="#38B6FF">Web · SEO · AI · Sydney</text>
</svg>
