<svg xmlns="http://www.w3.org/2000/svg" viewBox="0 0 600 400" width="600" height="400" role="img">
<defs><linearGradient id="g" x1="0" y1="0" x2="1" y2="1">
<stop offset="0" stop-color="#0d1120"/><stop offset="1" stop-color="#080b12"/></linearGradient>
<radialGradient id="glow" cx="0.75" cy="0.1" r="0.9">
<stop offset="0" stop-color="#00d4ff" stop-opacity="0.16"/><stop offset="0.6" stop-color="#00d4ff" stop-opacity="0"/></radialGradient></defs>
<rect width="600" height="400" fill="url(#g)"/>
<rect width="600" height="400" fill="url(#glow)"/>
<line x1="375" y1="196" x2="478" y2="221" stroke="#00d4ff" stroke-width="1" stroke-opacity="0.066"/><line x1="375" y1="196" x2="391" y2="105" stroke="#00d4ff" stroke-width="1" stroke-opacity="0.081"/><line x1="375" y1="196" x2="392" y2="116" stroke="#00d4ff" stroke-width="1" stroke-opacity="0.092"/><line x1="375" y1="196" x2="406" y2="318" stroke="#00d4ff" stroke-width="1" stroke-opacity="0.045"/><line x1="127" y1="292" x2="120" y2="198" stroke="#00d4ff" stroke-width="1" stroke-opacity="0.079"/><line x1="127" y1="292" x2="83" y2="308" stroke="#00d4ff" stroke-width="1" stroke-opacity="0.13"/><line x1="127" y1="292" x2="216" y2="363" stroke="#00d4ff" stroke-width="1" stroke-opacity="0.058"/><line x1="127" y1="292" x2="121" y2="299" stroke="#00d4ff" stroke-width="1" stroke-opacity="0.17"/><line x1="122" y1="97" x2="120" y2="198" stroke="#00d4ff" stroke-width="1" stroke-opacity="0.072"/><line x1="120" y1="198" x2="83" y2="308" stroke="#00d4ff" stroke-width="1" stroke-opacity="0.056"/><line x1="120" y1="198" x2="121" y2="299" stroke="#00d4ff" stroke-width="1" stroke-opacity="0.072"/><line x1="83" y1="308" x2="216" y2="363" stroke="#00d4ff" stroke-width="1" stroke-opacity="0.026"/><line x1="83" y1="308" x2="121" y2="299" stroke="#00d4ff" stroke-width="1" stroke-opacity="0.138"/><line x1="478" y1="221" x2="391" y2="105" stroke="#00d4ff" stroke-width="1" stroke-opacity="0.025"/><line x1="478" y1="221" x2="392" y2="116" stroke="#00d4ff" stroke-width="1" stroke-opacity="0.035"/><line x1="478" y1="221" x2="406" y2="318" stroke="#00d4ff" stroke-width="1" stroke-opacity="0.051"/><line x1="478" y1="221" x2="561" y2="79" stroke="#00d4ff" stroke-width="1" stroke-opacity="0.004"/><line x1="391" y1="105" x2="392" y2="116" stroke="#00d4ff" stroke-width="1" stroke-opacity="0.168"/><line x1="391" y1="105" x2="527" y2="44" stroke="#00d4ff" stroke-width="1" stroke-opacity="0.02"/><line x1="391" y1="105" x2="549" y2="62" stroke="#00d4ff" stroke-width="1" stroke-opacity="0.005"/><line x1="392" y1="116" x2="527" y2="44" stroke="#00d4ff" stroke-width="1" stroke-opacity="0.016"/><line x1="392" y1="116" x2="549" y2="62" stroke="#00d4ff" stroke-width="1" stroke-opacity="0.002"/><line x1="216" y1="363" x2="121" y2="299" stroke="#00d4ff" stroke-width="1" stroke-opacity="0.057"/><line x1="527" y1="44" x2="561" y2="79" stroke="#00d4ff" stroke-width="1" stroke-opacity="0.128"/><line x1="527" y1="44" x2="549" y2="62" stroke="#00d4ff" stroke-width="1" stroke-opacity="0.15"/><line x1="561" y1="79" x2="549" y2="62" stroke="#00d4ff" stroke-width="1" stroke-opacity="0.158"/><circle cx="375" cy="196" r="2" fill="#00d4ff" fill-opacity="0.5"/><circle cx="127" cy="292" r="3" fill="#00d4ff" fill-opacity="0.5"/><circle cx="122" cy="97" r="3" fill="#00d4ff" fill-opacity="0.5"/><circle cx="120" cy="198" r="3" fill="#00d4ff" fill-opacity="0.5"/><circle cx="83" cy="308" r="4" fill="#00d4ff" fill-opacity="0.5"/><circle cx="478" cy="221" r="2" fill="#00d4ff" fill-opacity="0.5"/><circle cx="391" cy="105" r="2" fill="#00d4ff" fill-opacity="0.5"/><circle cx="392" cy="116" r="4" fill="#00d4ff" fill-opacity="0.5"/><circle cx="216" cy="363" r="4" fill="#00d4ff" fill-opacity="0.5"/><circle cx="121" cy="299" r="4" fill="#00d4ff" fill-opacity="0.5"/><circle cx="406" cy="318" r="3" fill="#00d4ff" fill-opacity="0.5"/><circle cx="527" cy="44" r="3" fill="#00d4ff" fill-opacity="0.5"/><circle cx="561" cy="79" r="3" fill="#00d4ff" fill-opacity="0.5"/><circle cx="549" cy="62" r="4" fill="#00d4ff" fill-opacity="0.5"/>
<rect x="0" y="0" width="600" height="400" fill="none" stroke="#243049" stroke-width="1"/>
<text x="300" y="168" font-family="Verdana,Geneva,sans-serif" font-size="13" letter-spacing="2.5" fill="#00d4ff" text-anchor="middle" font-weight="bold">PORTFOLIO</text>
<text x="300" y="220" font-family="Georgia,'Times New Roman',serif" font-size="34" fill="#e8eaf0" text-anchor="middle" font-weight="bold">Abhishek KC</text>
<text x="584" y="386" font-family="Verdana,Geneva,sans-serif" font-size="13" fill="#8b93a8" text-anchor="end" font-weight="bold">webnetic</text>
</svg>