<svg xmlns="http://www.w3.org/2000/svg" viewBox="0 0 640 480" width="640" height="480" role="img">
<defs><linearGradient id="g" x1="0" y1="0" x2="1" y2="1">
<stop offset="0" stop-color="#0d1120"/><stop offset="1" stop-color="#080b12"/></linearGradient>
<radialGradient id="glow" cx="0.75" cy="0.1" r="0.9">
<stop offset="0" stop-color="#00d4ff" stop-opacity="0.16"/><stop offset="0.6" stop-color="#00d4ff" stop-opacity="0"/></radialGradient></defs>
<rect width="640" height="480" fill="url(#g)"/>
<rect width="640" height="480" fill="url(#glow)"/>
<line x1="236" y1="225" x2="377" y2="289" stroke="#00d4ff" stroke-width="1" stroke-opacity="0.024"/><line x1="236" y1="225" x2="311" y2="148" stroke="#00d4ff" stroke-width="1" stroke-opacity="0.072"/><line x1="236" y1="225" x2="280" y2="163" stroke="#00d4ff" stroke-width="1" stroke-opacity="0.104"/><line x1="236" y1="225" x2="254" y2="336" stroke="#00d4ff" stroke-width="1" stroke-opacity="0.067"/><line x1="236" y1="225" x2="322" y2="262" stroke="#00d4ff" stroke-width="1" stroke-opacity="0.086"/><line x1="236" y1="225" x2="313" y2="164" stroke="#00d4ff" stroke-width="1" stroke-opacity="0.081"/><line x1="236" y1="225" x2="361" y2="212" stroke="#00d4ff" stroke-width="1" stroke-opacity="0.054"/><line x1="236" y1="225" x2="259" y2="347" stroke="#00d4ff" stroke-width="1" stroke-opacity="0.055"/><line x1="421" y1="165" x2="379" y2="88" stroke="#00d4ff" stroke-width="1" stroke-opacity="0.092"/><line x1="421" y1="165" x2="377" y2="289" stroke="#00d4ff" stroke-width="1" stroke-opacity="0.048"/><line x1="421" y1="165" x2="581" y2="212" stroke="#00d4ff" stroke-width="1" stroke-opacity="0.012"/><line x1="421" y1="165" x2="311" y2="148" stroke="#00d4ff" stroke-width="1" stroke-opacity="0.068"/><line x1="421" y1="165" x2="280" y2="163" stroke="#00d4ff" stroke-width="1" stroke-opacity="0.038"/><line x1="421" y1="165" x2="322" y2="262" stroke="#00d4ff" stroke-width="1" stroke-opacity="0.041"/><line x1="421" y1="165" x2="313" y2="164" stroke="#00d4ff" stroke-width="1" stroke-opacity="0.072"/><line x1="421" y1="165" x2="361" y2="212" stroke="#00d4ff" stroke-width="1" stroke-opacity="0.103"/><line x1="118" y1="383" x2="254" y2="336" stroke="#00d4ff" stroke-width="1" stroke-opacity="0.035"/><line x1="118" y1="383" x2="259" y2="347" stroke="#00d4ff" stroke-width="1" stroke-opacity="0.034"/><line x1="379" y1="88" x2="311" y2="148" stroke="#00d4ff" stroke-width="1" stroke-opacity="0.089"/><line x1="379" y1="88" x2="280" y2="163" stroke="#00d4ff" stroke-width="1" stroke-opacity="0.055"/><line x1="379" y1="88" x2="313" y2="164" stroke="#00d4ff" stroke-width="1" stroke-opacity="0.079"/><line x1="379" y1="88" x2="361" y2="212" stroke="#00d4ff" stroke-width="1" stroke-opacity="0.054"/><line x1="377" y1="289" x2="311" y2="148" stroke="#00d4ff" stroke-width="1" stroke-opacity="0.024"/><line x1="377" y1="289" x2="280" y2="163" stroke="#00d4ff" stroke-width="1" stroke-opacity="0.02"/><line x1="377" y1="289" x2="254" y2="336" stroke="#00d4ff" stroke-width="1" stroke-opacity="0.048"/><line x1="377" y1="289" x2="322" y2="262" stroke="#00d4ff" stroke-width="1" stroke-opacity="0.118"/><line x1="377" y1="289" x2="313" y2="164" stroke="#00d4ff" stroke-width="1" stroke-opacity="0.039"/><line x1="377" y1="289" x2="361" y2="212" stroke="#00d4ff" stroke-width="1" stroke-opacity="0.101"/><line x1="377" y1="289" x2="259" y2="347" stroke="#00d4ff" stroke-width="1" stroke-opacity="0.048"/><line x1="581" y1="212" x2="588" y2="64" stroke="#00d4ff" stroke-width="1" stroke-opacity="0.031"/><line x1="311" y1="148" x2="280" y2="163" stroke="#00d4ff" stroke-width="1" stroke-opacity="0.145"/><line x1="311" y1="148" x2="322" y2="262" stroke="#00d4ff" stroke-width="1" stroke-opacity="0.065"/><line x1="311" y1="148" x2="313" y2="164" stroke="#00d4ff" stroke-width="1" stroke-opacity="0.164"/><line x1="311" y1="148" x2="361" y2="212" stroke="#00d4ff" stroke-width="1" stroke-opacity="0.098"/><line x1="280" y1="163" x2="254" y2="336" stroke="#00d4ff" stroke-width="1" stroke-opacity="0.004"/><line x1="280" y1="163" x2="322" y2="262" stroke="#00d4ff" stroke-width="1" stroke-opacity="0.072"/><line x1="280" y1="163" x2="313" y2="164" stroke="#00d4ff" stroke-width="1" stroke-opacity="0.147"/><line x1="280" y1="163" x2="361" y2="212" stroke="#00d4ff" stroke-width="1" stroke-opacity="0.085"/><line x1="254" y1="336" x2="322" y2="262" stroke="#00d4ff" stroke-width="1" stroke-opacity="0.079"/><line x1="254" y1="336" x2="361" y2="212" stroke="#00d4ff" stroke-width="1" stroke-opacity="0.015"/><line x1="254" y1="336" x2="259" y2="347" stroke="#00d4ff" stroke-width="1" stroke-opacity="0.168"/><line x1="322" y1="262" x2="313" y2="164" stroke="#00d4ff" stroke-width="1" stroke-opacity="0.081"/><line x1="322" y1="262" x2="361" y2="212" stroke="#00d4ff" stroke-width="1" stroke-opacity="0.116"/><line x1="322" y1="262" x2="259" y2="347" stroke="#00d4ff" stroke-width="1" stroke-opacity="0.074"/><line x1="313" y1="164" x2="361" y2="212" stroke="#00d4ff" stroke-width="1" stroke-opacity="0.112"/><line x1="361" y1="212" x2="259" y2="347" stroke="#00d4ff" stroke-width="1" stroke-opacity="0.01"/><circle cx="236" cy="225" r="3" fill="#00d4ff" fill-opacity="0.5"/><circle cx="421" cy="165" r="2" fill="#00d4ff" fill-opacity="0.5"/><circle cx="118" cy="383" r="4" fill="#00d4ff" fill-opacity="0.5"/><circle cx="379" cy="88" r="2" fill="#00d4ff" fill-opacity="0.5"/><circle cx="377" cy="289" r="3" fill="#00d4ff" fill-opacity="0.5"/><circle cx="581" cy="212" r="4" fill="#00d4ff" fill-opacity="0.5"/><circle cx="311" cy="148" r="3" fill="#00d4ff" fill-opacity="0.5"/><circle cx="280" cy="163" r="3" fill="#00d4ff" fill-opacity="0.5"/><circle cx="254" cy="336" r="2" fill="#00d4ff" fill-opacity="0.5"/><circle cx="588" cy="64" r="3" fill="#00d4ff" fill-opacity="0.5"/><circle cx="322" cy="262" r="2" fill="#00d4ff" fill-opacity="0.5"/><circle cx="313" cy="164" r="4" fill="#00d4ff" fill-opacity="0.5"/><circle cx="361" cy="212" r="3" fill="#00d4ff" fill-opacity="0.5"/><circle cx="259" cy="347" r="3" fill="#00d4ff" fill-opacity="0.5"/>
<rect x="0" y="0" width="640" height="480" fill="none" stroke="#243049" stroke-width="1"/>
<text x="320" y="202" font-family="Verdana,Geneva,sans-serif" font-size="16" letter-spacing="2.5" fill="#00d4ff" text-anchor="middle" font-weight="bold">AEO</text>
<text x="320" y="264" font-family="Georgia,'Times New Roman',serif" font-size="40" fill="#e8eaf0" text-anchor="middle" font-weight="bold">Answer Engine Optimisation</text>
<text x="624" y="466" font-family="Verdana,Geneva,sans-serif" font-size="16" fill="#8b93a8" text-anchor="end" font-weight="bold">webnetic</text>
</svg>