<svg xmlns="http://www.w3.org/2000/svg" viewBox="0 0 600 400" width="600" height="400" role="img">
<defs><linearGradient id="g" x1="0" y1="0" x2="1" y2="1">
<stop offset="0" stop-color="#0d1120"/><stop offset="1" stop-color="#080b12"/></linearGradient>
<radialGradient id="glow" cx="0.75" cy="0.1" r="0.9">
<stop offset="0" stop-color="#00d4ff" stop-opacity="0.16"/><stop offset="0.6" stop-color="#00d4ff" stop-opacity="0"/></radialGradient></defs>
<rect width="600" height="400" fill="url(#g)"/>
<rect width="600" height="400" fill="url(#glow)"/>
<line x1="141" y1="31" x2="157" y2="103" stroke="#00d4ff" stroke-width="1" stroke-opacity="0.101"/><line x1="491" y1="225" x2="425" y2="191" stroke="#00d4ff" stroke-width="1" stroke-opacity="0.1"/><line x1="491" y1="225" x2="361" y2="197" stroke="#00d4ff" stroke-width="1" stroke-opacity="0.038"/><line x1="491" y1="225" x2="438" y2="196" stroke="#00d4ff" stroke-width="1" stroke-opacity="0.115"/><line x1="491" y1="225" x2="397" y2="318" stroke="#00d4ff" stroke-width="1" stroke-opacity="0.038"/><line x1="491" y1="225" x2="410" y2="160" stroke="#00d4ff" stroke-width="1" stroke-opacity="0.069"/><line x1="425" y1="191" x2="361" y2="197" stroke="#00d4ff" stroke-width="1" stroke-opacity="0.111"/><line x1="425" y1="191" x2="438" y2="196" stroke="#00d4ff" stroke-width="1" stroke-opacity="0.165"/><line x1="425" y1="191" x2="397" y2="318" stroke="#00d4ff" stroke-width="1" stroke-opacity="0.041"/><line x1="425" y1="191" x2="313" y2="120" stroke="#00d4ff" stroke-width="1" stroke-opacity="0.038"/><line x1="425" y1="191" x2="512" y2="49" stroke="#00d4ff" stroke-width="1" stroke-opacity="0.002"/><line x1="425" y1="191" x2="348" y2="126" stroke="#00d4ff" stroke-width="1" stroke-opacity="0.072"/><line x1="425" y1="191" x2="410" y2="160" stroke="#00d4ff" stroke-width="1" stroke-opacity="0.143"/><line x1="361" y1="197" x2="438" y2="196" stroke="#00d4ff" stroke-width="1" stroke-opacity="0.097"/><line x1="361" y1="197" x2="397" y2="318" stroke="#00d4ff" stroke-width="1" stroke-opacity="0.045"/><line x1="361" y1="197" x2="313" y2="120" stroke="#00d4ff" stroke-width="1" stroke-opacity="0.083"/><line x1="361" y1="197" x2="348" y2="126" stroke="#00d4ff" stroke-width="1" stroke-opacity="0.103"/><line x1="361" y1="197" x2="410" y2="160" stroke="#00d4ff" stroke-width="1" stroke-opacity="0.114"/><line x1="438" y1="196" x2="397" y2="318" stroke="#00d4ff" stroke-width="1" stroke-opacity="0.042"/><line x1="438" y1="196" x2="313" y2="120" stroke="#00d4ff" stroke-width="1" stroke-opacity="0.023"/><line x1="438" y1="196" x2="512" y2="49" stroke="#00d4ff" stroke-width="1" stroke-opacity="0.004"/><line x1="438" y1="196" x2="348" y2="126" stroke="#00d4ff" stroke-width="1" stroke-opacity="0.058"/><line x1="438" y1="196" x2="410" y2="160" stroke="#00d4ff" stroke-width="1" stroke-opacity="0.131"/><line x1="157" y1="103" x2="313" y2="120" stroke="#00d4ff" stroke-width="1" stroke-opacity="0.012"/><line x1="157" y1="103" x2="182" y2="241" stroke="#00d4ff" stroke-width="1" stroke-opacity="0.03"/><line x1="397" y1="318" x2="410" y2="160" stroke="#00d4ff" stroke-width="1" stroke-opacity="0.01"/><line x1="498" y1="37" x2="555" y2="64" stroke="#00d4ff" stroke-width="1" stroke-opacity="0.112"/><line x1="498" y1="37" x2="512" y2="49" stroke="#00d4ff" stroke-width="1" stroke-opacity="0.16"/><line x1="498" y1="37" x2="410" y2="160" stroke="#00d4ff" stroke-width="1" stroke-opacity="0.018"/><line x1="313" y1="120" x2="348" y2="126" stroke="#00d4ff" stroke-width="1" stroke-opacity="0.142"/><line x1="313" y1="120" x2="410" y2="160" stroke="#00d4ff" stroke-width="1" stroke-opacity="0.068"/><line x1="555" y1="64" x2="512" y2="49" stroke="#00d4ff" stroke-width="1" stroke-opacity="0.131"/><line x1="512" y1="49" x2="410" y2="160" stroke="#00d4ff" stroke-width="1" stroke-opacity="0.018"/><line x1="348" y1="126" x2="410" y2="160" stroke="#00d4ff" stroke-width="1" stroke-opacity="0.104"/><circle cx="141" cy="31" r="2" fill="#00d4ff" fill-opacity="0.5"/><circle cx="491" cy="225" r="3" fill="#00d4ff" fill-opacity="0.5"/><circle cx="425" cy="191" r="4" fill="#00d4ff" fill-opacity="0.5"/><circle cx="361" cy="197" r="4" fill="#00d4ff" fill-opacity="0.5"/><circle cx="438" cy="196" r="4" fill="#00d4ff" fill-opacity="0.5"/><circle cx="157" cy="103" r="2" fill="#00d4ff" fill-opacity="0.5"/><circle cx="397" cy="318" r="3" fill="#00d4ff" fill-opacity="0.5"/><circle cx="498" cy="37" r="2" fill="#00d4ff" fill-opacity="0.5"/><circle cx="313" cy="120" r="2" fill="#00d4ff" fill-opacity="0.5"/><circle cx="555" cy="64" r="4" fill="#00d4ff" fill-opacity="0.5"/><circle cx="512" cy="49" r="3" fill="#00d4ff" fill-opacity="0.5"/><circle cx="348" cy="126" r="3" fill="#00d4ff" fill-opacity="0.5"/><circle cx="410" cy="160" r="3" fill="#00d4ff" fill-opacity="0.5"/><circle cx="182" cy="241" r="2" fill="#00d4ff" fill-opacity="0.5"/>
<rect x="0" y="0" width="600" height="400" fill="none" stroke="#243049" stroke-width="1"/>
<text x="300" y="168" font-family="Verdana,Geneva,sans-serif" font-size="13" letter-spacing="2.5" fill="#00d4ff" text-anchor="middle" font-weight="bold">CASE STUDY</text>
<text x="300" y="220" font-family="Georgia,'Times New Roman',serif" font-size="34" fill="#e8eaf0" text-anchor="middle" font-weight="bold">AEO in Action</text>
<text x="584" y="386" font-family="Verdana,Geneva,sans-serif" font-size="13" fill="#8b93a8" text-anchor="end" font-weight="bold">webnetic</text>
</svg>