<svg xmlns="http://www.w3.org/2000/svg" viewBox="0 0 600 400" width="600" height="400" role="img">
<defs><linearGradient id="g" x1="0" y1="0" x2="1" y2="1">
<stop offset="0" stop-color="#0d1120"/><stop offset="1" stop-color="#080b12"/></linearGradient>
<radialGradient id="glow" cx="0.75" cy="0.1" r="0.9">
<stop offset="0" stop-color="#00d4ff" stop-opacity="0.16"/><stop offset="0.6" stop-color="#00d4ff" stop-opacity="0"/></radialGradient></defs>
<rect width="600" height="400" fill="url(#g)"/>
<rect width="600" height="400" fill="url(#glow)"/>
<line x1="92" y1="182" x2="95" y2="120" stroke="#00d4ff" stroke-width="1" stroke-opacity="0.113"/><line x1="92" y1="182" x2="232" y2="228" stroke="#00d4ff" stroke-width="1" stroke-opacity="0.022"/><line x1="92" y1="182" x2="133" y2="153" stroke="#00d4ff" stroke-width="1" stroke-opacity="0.126"/><line x1="92" y1="182" x2="144" y2="151" stroke="#00d4ff" stroke-width="1" stroke-opacity="0.115"/><line x1="484" y1="85" x2="474" y2="106" stroke="#00d4ff" stroke-width="1" stroke-opacity="0.155"/><line x1="484" y1="85" x2="386" y2="178" stroke="#00d4ff" stroke-width="1" stroke-opacity="0.035"/><line x1="484" y1="85" x2="411" y2="180" stroke="#00d4ff" stroke-width="1" stroke-opacity="0.052"/><line x1="95" y1="120" x2="133" y2="153" stroke="#00d4ff" stroke-width="1" stroke-opacity="0.126"/><line x1="95" y1="120" x2="144" y2="151" stroke="#00d4ff" stroke-width="1" stroke-opacity="0.118"/><line x1="232" y1="228" x2="133" y2="153" stroke="#00d4ff" stroke-width="1" stroke-opacity="0.047"/><line x1="232" y1="228" x2="316" y2="328" stroke="#00d4ff" stroke-width="1" stroke-opacity="0.04"/><line x1="232" y1="228" x2="386" y2="178" stroke="#00d4ff" stroke-width="1" stroke-opacity="0.007"/><line x1="232" y1="228" x2="321" y2="330" stroke="#00d4ff" stroke-width="1" stroke-opacity="0.035"/><line x1="232" y1="228" x2="262" y2="173" stroke="#00d4ff" stroke-width="1" stroke-opacity="0.113"/><line x1="232" y1="228" x2="144" y2="151" stroke="#00d4ff" stroke-width="1" stroke-opacity="0.055"/><line x1="133" y1="153" x2="262" y2="173" stroke="#00d4ff" stroke-width="1" stroke-opacity="0.04"/><line x1="133" y1="153" x2="144" y2="151" stroke="#00d4ff" stroke-width="1" stroke-opacity="0.168"/><line x1="499" y1="324" x2="496" y2="366" stroke="#00d4ff" stroke-width="1" stroke-opacity="0.135"/><line x1="474" y1="106" x2="386" y2="178" stroke="#00d4ff" stroke-width="1" stroke-opacity="0.058"/><line x1="474" y1="106" x2="411" y2="180" stroke="#00d4ff" stroke-width="1" stroke-opacity="0.076"/><line x1="316" y1="328" x2="386" y2="178" stroke="#00d4ff" stroke-width="1" stroke-opacity="0.003"/><line x1="316" y1="328" x2="321" y2="330" stroke="#00d4ff" stroke-width="1" stroke-opacity="0.174"/><line x1="316" y1="328" x2="262" y2="173" stroke="#00d4ff" stroke-width="1" stroke-opacity="0.004"/><line x1="386" y1="178" x2="321" y2="330" stroke="#00d4ff" stroke-width="1" stroke-opacity="0.003"/><line x1="386" y1="178" x2="411" y2="180" stroke="#00d4ff" stroke-width="1" stroke-opacity="0.153"/><line x1="386" y1="178" x2="262" y2="173" stroke="#00d4ff" stroke-width="1" stroke-opacity="0.047"/><line x1="321" y1="330" x2="262" y2="173" stroke="#00d4ff" stroke-width="1" stroke-opacity="0.0"/><line x1="411" y1="180" x2="262" y2="173" stroke="#00d4ff" stroke-width="1" stroke-opacity="0.02"/><line x1="262" y1="173" x2="144" y2="151" stroke="#00d4ff" stroke-width="1" stroke-opacity="0.051"/><circle cx="92" cy="182" r="4" fill="#00d4ff" fill-opacity="0.5"/><circle cx="484" cy="85" r="2" fill="#00d4ff" fill-opacity="0.5"/><circle cx="95" cy="120" r="3" fill="#00d4ff" fill-opacity="0.5"/><circle cx="232" cy="228" r="2" fill="#00d4ff" fill-opacity="0.5"/><circle cx="133" cy="153" r="4" fill="#00d4ff" fill-opacity="0.5"/><circle cx="499" cy="324" r="4" fill="#00d4ff" fill-opacity="0.5"/><circle cx="496" cy="366" r="3" fill="#00d4ff" fill-opacity="0.5"/><circle cx="474" cy="106" r="3" fill="#00d4ff" fill-opacity="0.5"/><circle cx="316" cy="328" r="3" fill="#00d4ff" fill-opacity="0.5"/><circle cx="386" cy="178" r="2" fill="#00d4ff" fill-opacity="0.5"/><circle cx="321" cy="330" r="3" fill="#00d4ff" fill-opacity="0.5"/><circle cx="411" cy="180" r="2" fill="#00d4ff" fill-opacity="0.5"/><circle cx="262" cy="173" r="3" fill="#00d4ff" fill-opacity="0.5"/><circle cx="144" cy="151" r="4" fill="#00d4ff" fill-opacity="0.5"/>
<rect x="0" y="0" width="600" height="400" fill="none" stroke="#243049" stroke-width="1"/>
<text x="300" y="168" font-family="Verdana,Geneva,sans-serif" font-size="13" letter-spacing="2.5" fill="#00d4ff" text-anchor="middle" font-weight="bold">WORKFLOWS</text>
<text x="300" y="220" font-family="Georgia,'Times New Roman',serif" font-size="34" fill="#e8eaf0" text-anchor="middle" font-weight="bold">AI Automation</text>
<text x="584" y="386" font-family="Verdana,Geneva,sans-serif" font-size="13" fill="#8b93a8" text-anchor="end" font-weight="bold">webnetic</text>
</svg>