<svg xmlns="http://www.w3.org/2000/svg" viewBox="0 0 640 480" width="640" height="480" role="img">
<defs><linearGradient id="g" x1="0" y1="0" x2="1" y2="1">
<stop offset="0" stop-color="#0d1120"/><stop offset="1" stop-color="#080b12"/></linearGradient>
<radialGradient id="glow" cx="0.75" cy="0.1" r="0.9">
<stop offset="0" stop-color="#00d4ff" stop-opacity="0.16"/><stop offset="0.6" stop-color="#00d4ff" stop-opacity="0"/></radialGradient></defs>
<rect width="640" height="480" fill="url(#g)"/>
<rect width="640" height="480" fill="url(#glow)"/>
<line x1="331" y1="92" x2="196" y2="144" stroke="#00d4ff" stroke-width="1" stroke-opacity="0.035"/><line x1="331" y1="92" x2="411" y2="201" stroke="#00d4ff" stroke-width="1" stroke-opacity="0.044"/><line x1="331" y1="92" x2="366" y2="222" stroke="#00d4ff" stroke-width="1" stroke-opacity="0.045"/><line x1="331" y1="92" x2="355" y2="226" stroke="#00d4ff" stroke-width="1" stroke-opacity="0.043"/><line x1="331" y1="92" x2="314" y2="127" stroke="#00d4ff" stroke-width="1" stroke-opacity="0.141"/><line x1="331" y1="92" x2="273" y2="53" stroke="#00d4ff" stroke-width="1" stroke-opacity="0.11"/><line x1="361" y1="404" x2="355" y2="226" stroke="#00d4ff" stroke-width="1" stroke-opacity="0.001"/><line x1="361" y1="404" x2="433" y2="346" stroke="#00d4ff" stroke-width="1" stroke-opacity="0.087"/><line x1="361" y1="404" x2="442" y2="444" stroke="#00d4ff" stroke-width="1" stroke-opacity="0.089"/><line x1="196" y1="144" x2="215" y2="292" stroke="#00d4ff" stroke-width="1" stroke-opacity="0.03"/><line x1="196" y1="144" x2="191" y2="314" stroke="#00d4ff" stroke-width="1" stroke-opacity="0.009"/><line x1="196" y1="144" x2="31" y2="106" stroke="#00d4ff" stroke-width="1" stroke-opacity="0.01"/><line x1="196" y1="144" x2="355" y2="226" stroke="#00d4ff" stroke-width="1" stroke-opacity="0.0"/><line x1="196" y1="144" x2="314" y2="127" stroke="#00d4ff" stroke-width="1" stroke-opacity="0.06"/><line x1="196" y1="144" x2="273" y2="53" stroke="#00d4ff" stroke-width="1" stroke-opacity="0.06"/><line x1="215" y1="292" x2="191" y2="314" stroke="#00d4ff" stroke-width="1" stroke-opacity="0.147"/><line x1="215" y1="292" x2="366" y2="222" stroke="#00d4ff" stroke-width="1" stroke-opacity="0.013"/><line x1="215" y1="292" x2="355" y2="226" stroke="#00d4ff" stroke-width="1" stroke-opacity="0.025"/><line x1="411" y1="201" x2="366" y2="222" stroke="#00d4ff" stroke-width="1" stroke-opacity="0.13"/><line x1="411" y1="201" x2="355" y2="226" stroke="#00d4ff" stroke-width="1" stroke-opacity="0.118"/><line x1="411" y1="201" x2="433" y2="346" stroke="#00d4ff" stroke-width="1" stroke-opacity="0.033"/><line x1="411" y1="201" x2="314" y2="127" stroke="#00d4ff" stroke-width="1" stroke-opacity="0.057"/><line x1="366" y1="222" x2="355" y2="226" stroke="#00d4ff" stroke-width="1" stroke-opacity="0.168"/><line x1="366" y1="222" x2="433" y2="346" stroke="#00d4ff" stroke-width="1" stroke-opacity="0.038"/><line x1="366" y1="222" x2="314" y2="127" stroke="#00d4ff" stroke-width="1" stroke-opacity="0.071"/><line x1="355" y1="226" x2="433" y2="346" stroke="#00d4ff" stroke-width="1" stroke-opacity="0.036"/><line x1="355" y1="226" x2="314" y2="127" stroke="#00d4ff" stroke-width="1" stroke-opacity="0.072"/><line x1="433" y1="346" x2="442" y2="444" stroke="#00d4ff" stroke-width="1" stroke-opacity="0.081"/><line x1="314" y1="127" x2="273" y2="53" stroke="#00d4ff" stroke-width="1" stroke-opacity="0.095"/><circle cx="331" cy="92" r="3" fill="#00d4ff" fill-opacity="0.5"/><circle cx="361" cy="404" r="4" fill="#00d4ff" fill-opacity="0.5"/><circle cx="196" cy="144" r="4" fill="#00d4ff" fill-opacity="0.5"/><circle cx="215" cy="292" r="4" fill="#00d4ff" fill-opacity="0.5"/><circle cx="191" cy="314" r="2" fill="#00d4ff" fill-opacity="0.5"/><circle cx="31" cy="106" r="2" fill="#00d4ff" fill-opacity="0.5"/><circle cx="411" cy="201" r="4" fill="#00d4ff" fill-opacity="0.5"/><circle cx="528" cy="33" r="3" fill="#00d4ff" fill-opacity="0.5"/><circle cx="366" cy="222" r="4" fill="#00d4ff" fill-opacity="0.5"/><circle cx="355" cy="226" r="4" fill="#00d4ff" fill-opacity="0.5"/><circle cx="433" cy="346" r="3" fill="#00d4ff" fill-opacity="0.5"/><circle cx="314" cy="127" r="3" fill="#00d4ff" fill-opacity="0.5"/><circle cx="273" cy="53" r="4" fill="#00d4ff" fill-opacity="0.5"/><circle cx="442" cy="444" r="2" fill="#00d4ff" fill-opacity="0.5"/>
<rect x="0" y="0" width="640" height="480" fill="none" stroke="#243049" stroke-width="1"/>
<text x="320" y="202" font-family="Verdana,Geneva,sans-serif" font-size="16" letter-spacing="2.5" fill="#00d4ff" text-anchor="middle" font-weight="bold">WORKFLOWS</text>
<text x="320" y="264" font-family="Georgia,'Times New Roman',serif" font-size="40" fill="#e8eaf0" text-anchor="middle" font-weight="bold">AI Automation</text>
<text x="624" y="466" font-family="Verdana,Geneva,sans-serif" font-size="16" fill="#8b93a8" text-anchor="end" font-weight="bold">webnetic</text>
</svg>