<svg xmlns="http://www.w3.org/2000/svg" viewBox="0 0 600 400" width="600" height="400" role="img">
<defs><linearGradient id="g" x1="0" y1="0" x2="1" y2="1">
<stop offset="0" stop-color="#0d1120"/><stop offset="1" stop-color="#080b12"/></linearGradient>
<radialGradient id="glow" cx="0.75" cy="0.1" r="0.9">
<stop offset="0" stop-color="#00d4ff" stop-opacity="0.16"/><stop offset="0.6" stop-color="#00d4ff" stop-opacity="0"/></radialGradient></defs>
<rect width="600" height="400" fill="url(#g)"/>
<rect width="600" height="400" fill="url(#glow)"/>
<line x1="367" y1="215" x2="292" y2="145" stroke="#00d4ff" stroke-width="1" stroke-opacity="0.07"/><line x1="367" y1="215" x2="310" y2="234" stroke="#00d4ff" stroke-width="1" stroke-opacity="0.116"/><line x1="367" y1="215" x2="431" y2="354" stroke="#00d4ff" stroke-width="1" stroke-opacity="0.016"/><line x1="367" y1="215" x2="461" y2="115" stroke="#00d4ff" stroke-width="1" stroke-opacity="0.033"/><line x1="367" y1="215" x2="229" y2="245" stroke="#00d4ff" stroke-width="1" stroke-opacity="0.029"/><line x1="367" y1="215" x2="428" y2="90" stroke="#00d4ff" stroke-width="1" stroke-opacity="0.031"/><line x1="367" y1="215" x2="335" y2="185" stroke="#00d4ff" stroke-width="1" stroke-opacity="0.133"/><line x1="367" y1="215" x2="307" y2="125" stroke="#00d4ff" stroke-width="1" stroke-opacity="0.064"/><line x1="78" y1="59" x2="169" y2="92" stroke="#00d4ff" stroke-width="1" stroke-opacity="0.076"/><line x1="78" y1="59" x2="240" y2="53" stroke="#00d4ff" stroke-width="1" stroke-opacity="0.006"/><line x1="78" y1="59" x2="62" y2="52" stroke="#00d4ff" stroke-width="1" stroke-opacity="0.161"/><line x1="169" y1="92" x2="292" y2="145" stroke="#00d4ff" stroke-width="1" stroke-opacity="0.037"/><line x1="169" y1="92" x2="229" y2="245" stroke="#00d4ff" stroke-width="1" stroke-opacity="0.004"/><line x1="169" y1="92" x2="240" y2="53" stroke="#00d4ff" stroke-width="1" stroke-opacity="0.093"/><line x1="169" y1="92" x2="307" y2="125" stroke="#00d4ff" stroke-width="1" stroke-opacity="0.028"/><line x1="169" y1="92" x2="62" y2="52" stroke="#00d4ff" stroke-width="1" stroke-opacity="0.058"/><line x1="292" y1="145" x2="310" y2="234" stroke="#00d4ff" stroke-width="1" stroke-opacity="0.083"/><line x1="292" y1="145" x2="229" y2="245" stroke="#00d4ff" stroke-width="1" stroke-opacity="0.053"/><line x1="292" y1="145" x2="428" y2="90" stroke="#00d4ff" stroke-width="1" stroke-opacity="0.023"/><line x1="292" y1="145" x2="240" y2="53" stroke="#00d4ff" stroke-width="1" stroke-opacity="0.067"/><line x1="292" y1="145" x2="335" y2="185" stroke="#00d4ff" stroke-width="1" stroke-opacity="0.117"/><line x1="292" y1="145" x2="307" y2="125" stroke="#00d4ff" stroke-width="1" stroke-opacity="0.153"/><line x1="310" y1="234" x2="229" y2="245" stroke="#00d4ff" stroke-width="1" stroke-opacity="0.092"/><line x1="310" y1="234" x2="335" y2="185" stroke="#00d4ff" stroke-width="1" stroke-opacity="0.121"/><line x1="310" y1="234" x2="307" y2="125" stroke="#00d4ff" stroke-width="1" stroke-opacity="0.063"/><line x1="431" y1="354" x2="523" y2="281" stroke="#00d4ff" stroke-width="1" stroke-opacity="0.054"/><line x1="461" y1="115" x2="428" y2="90" stroke="#00d4ff" stroke-width="1" stroke-opacity="0.136"/><line x1="461" y1="115" x2="335" y2="185" stroke="#00d4ff" stroke-width="1" stroke-opacity="0.026"/><line x1="461" y1="115" x2="307" y2="125" stroke="#00d4ff" stroke-width="1" stroke-opacity="0.015"/><line x1="229" y1="245" x2="335" y2="185" stroke="#00d4ff" stroke-width="1" stroke-opacity="0.049"/><line x1="229" y1="245" x2="307" y2="125" stroke="#00d4ff" stroke-width="1" stroke-opacity="0.027"/><line x1="428" y1="90" x2="335" y2="185" stroke="#00d4ff" stroke-width="1" stroke-opacity="0.038"/><line x1="428" y1="90" x2="307" y2="125" stroke="#00d4ff" stroke-width="1" stroke-opacity="0.045"/><line x1="240" y1="53" x2="335" y2="185" stroke="#00d4ff" stroke-width="1" stroke-opacity="0.006"/><line x1="240" y1="53" x2="307" y2="125" stroke="#00d4ff" stroke-width="1" stroke-opacity="0.075"/><line x1="335" y1="185" x2="307" y2="125" stroke="#00d4ff" stroke-width="1" stroke-opacity="0.109"/><circle cx="367" cy="215" r="3" fill="#00d4ff" fill-opacity="0.5"/><circle cx="78" cy="59" r="3" fill="#00d4ff" fill-opacity="0.5"/><circle cx="169" cy="92" r="2" fill="#00d4ff" fill-opacity="0.5"/><circle cx="292" cy="145" r="2" fill="#00d4ff" fill-opacity="0.5"/><circle cx="310" cy="234" r="3" fill="#00d4ff" fill-opacity="0.5"/><circle cx="431" cy="354" r="4" fill="#00d4ff" fill-opacity="0.5"/><circle cx="461" cy="115" r="3" fill="#00d4ff" fill-opacity="0.5"/><circle cx="229" cy="245" r="3" fill="#00d4ff" fill-opacity="0.5"/><circle cx="428" cy="90" r="3" fill="#00d4ff" fill-opacity="0.5"/><circle cx="240" cy="53" r="4" fill="#00d4ff" fill-opacity="0.5"/><circle cx="335" cy="185" r="4" fill="#00d4ff" fill-opacity="0.5"/><circle cx="307" cy="125" r="3" fill="#00d4ff" fill-opacity="0.5"/><circle cx="62" cy="52" r="4" fill="#00d4ff" fill-opacity="0.5"/><circle cx="523" cy="281" r="2" fill="#00d4ff" fill-opacity="0.5"/>
<rect x="0" y="0" width="600" height="400" fill="none" stroke="#243049" stroke-width="1"/>
<text x="300" y="168" font-family="Verdana,Geneva,sans-serif" font-size="13" letter-spacing="2.5" fill="#00d4ff" text-anchor="middle" font-weight="bold">AI</text>
<text x="300" y="220" font-family="Georgia,'Times New Roman',serif" font-size="34" fill="#e8eaf0" text-anchor="middle" font-weight="bold">AI Chatbots</text>
<text x="584" y="386" font-family="Verdana,Geneva,sans-serif" font-size="13" fill="#8b93a8" text-anchor="end" font-weight="bold">webnetic</text>
</svg>