<svg xmlns="http://www.w3.org/2000/svg" viewBox="0 0 640 480" width="640" height="480" role="img">
<defs><linearGradient id="g" x1="0" y1="0" x2="1" y2="1">
<stop offset="0" stop-color="#0d1120"/><stop offset="1" stop-color="#080b12"/></linearGradient>
<radialGradient id="glow" cx="0.75" cy="0.1" r="0.9">
<stop offset="0" stop-color="#00d4ff" stop-opacity="0.16"/><stop offset="0.6" stop-color="#00d4ff" stop-opacity="0"/></radialGradient></defs>
<rect width="640" height="480" fill="url(#g)"/>
<rect width="640" height="480" fill="url(#glow)"/>
<line x1="129" y1="355" x2="153" y2="256" stroke="#00d4ff" stroke-width="1" stroke-opacity="0.078"/><line x1="129" y1="355" x2="104" y2="415" stroke="#00d4ff" stroke-width="1" stroke-opacity="0.115"/><line x1="129" y1="355" x2="68" y2="422" stroke="#00d4ff" stroke-width="1" stroke-opacity="0.089"/><line x1="407" y1="422" x2="395" y2="272" stroke="#00d4ff" stroke-width="1" stroke-opacity="0.029"/><line x1="462" y1="50" x2="443" y2="150" stroke="#00d4ff" stroke-width="1" stroke-opacity="0.078"/><line x1="462" y1="50" x2="455" y2="36" stroke="#00d4ff" stroke-width="1" stroke-opacity="0.164"/><line x1="462" y1="50" x2="561" y2="131" stroke="#00d4ff" stroke-width="1" stroke-opacity="0.052"/><line x1="462" y1="50" x2="563" y2="166" stroke="#00d4ff" stroke-width="1" stroke-opacity="0.026"/><line x1="462" y1="50" x2="543" y2="96" stroke="#00d4ff" stroke-width="1" stroke-opacity="0.086"/><line x1="462" y1="50" x2="309" y2="62" stroke="#00d4ff" stroke-width="1" stroke-opacity="0.026"/><line x1="153" y1="256" x2="104" y2="415" stroke="#00d4ff" stroke-width="1" stroke-opacity="0.013"/><line x1="443" y1="150" x2="455" y2="36" stroke="#00d4ff" stroke-width="1" stroke-opacity="0.065"/><line x1="443" y1="150" x2="564" y2="260" stroke="#00d4ff" stroke-width="1" stroke-opacity="0.016"/><line x1="443" y1="150" x2="561" y2="131" stroke="#00d4ff" stroke-width="1" stroke-opacity="0.06"/><line x1="443" y1="150" x2="563" y2="166" stroke="#00d4ff" stroke-width="1" stroke-opacity="0.058"/><line x1="443" y1="150" x2="543" y2="96" stroke="#00d4ff" stroke-width="1" stroke-opacity="0.066"/><line x1="443" y1="150" x2="309" y2="62" stroke="#00d4ff" stroke-width="1" stroke-opacity="0.019"/><line x1="443" y1="150" x2="395" y2="272" stroke="#00d4ff" stroke-width="1" stroke-opacity="0.048"/><line x1="455" y1="36" x2="561" y2="131" stroke="#00d4ff" stroke-width="1" stroke-opacity="0.037"/><line x1="455" y1="36" x2="563" y2="166" stroke="#00d4ff" stroke-width="1" stroke-opacity="0.01"/><line x1="455" y1="36" x2="543" y2="96" stroke="#00d4ff" stroke-width="1" stroke-opacity="0.073"/><line x1="455" y1="36" x2="309" y2="62" stroke="#00d4ff" stroke-width="1" stroke-opacity="0.031"/><line x1="564" y1="260" x2="561" y2="131" stroke="#00d4ff" stroke-width="1" stroke-opacity="0.05"/><line x1="564" y1="260" x2="563" y2="166" stroke="#00d4ff" stroke-width="1" stroke-opacity="0.086"/><line x1="564" y1="260" x2="543" y2="96" stroke="#00d4ff" stroke-width="1" stroke-opacity="0.014"/><line x1="564" y1="260" x2="395" y2="272" stroke="#00d4ff" stroke-width="1" stroke-opacity="0.01"/><line x1="104" y1="415" x2="68" y2="422" stroke="#00d4ff" stroke-width="1" stroke-opacity="0.143"/><line x1="561" y1="131" x2="563" y2="166" stroke="#00d4ff" stroke-width="1" stroke-opacity="0.145"/><line x1="561" y1="131" x2="543" y2="96" stroke="#00d4ff" stroke-width="1" stroke-opacity="0.14"/><line x1="563" y1="166" x2="543" y2="96" stroke="#00d4ff" stroke-width="1" stroke-opacity="0.107"/><circle cx="129" cy="355" r="3" fill="#00d4ff" fill-opacity="0.5"/><circle cx="407" cy="422" r="3" fill="#00d4ff" fill-opacity="0.5"/><circle cx="462" cy="50" r="3" fill="#00d4ff" fill-opacity="0.5"/><circle cx="153" cy="256" r="4" fill="#00d4ff" fill-opacity="0.5"/><circle cx="443" cy="150" r="2" fill="#00d4ff" fill-opacity="0.5"/><circle cx="455" cy="36" r="4" fill="#00d4ff" fill-opacity="0.5"/><circle cx="564" cy="260" r="4" fill="#00d4ff" fill-opacity="0.5"/><circle cx="104" cy="415" r="3" fill="#00d4ff" fill-opacity="0.5"/><circle cx="561" cy="131" r="3" fill="#00d4ff" fill-opacity="0.5"/><circle cx="68" cy="422" r="2" fill="#00d4ff" fill-opacity="0.5"/><circle cx="563" cy="166" r="2" fill="#00d4ff" fill-opacity="0.5"/><circle cx="543" cy="96" r="2" fill="#00d4ff" fill-opacity="0.5"/><circle cx="309" cy="62" r="2" fill="#00d4ff" fill-opacity="0.5"/><circle cx="395" cy="272" r="4" fill="#00d4ff" fill-opacity="0.5"/>
<rect x="0" y="0" width="640" height="480" fill="none" stroke="#243049" stroke-width="1"/>
<text x="320" y="202" font-family="Verdana,Geneva,sans-serif" font-size="16" letter-spacing="2.5" fill="#00d4ff" text-anchor="middle" font-weight="bold">SYSTEMS</text>
<text x="320" y="264" font-family="Georgia,'Times New Roman',serif" font-size="40" fill="#e8eaf0" text-anchor="middle" font-weight="bold">AI Integration</text>
<text x="624" y="466" font-family="Verdana,Geneva,sans-serif" font-size="16" fill="#8b93a8" text-anchor="end" font-weight="bold">webnetic</text>
</svg>