<svg xmlns="http://www.w3.org/2000/svg" viewBox="0 0 600 400" width="600" height="400" role="img">
<defs><linearGradient id="g" x1="0" y1="0" x2="1" y2="1">
<stop offset="0" stop-color="#0d1120"/><stop offset="1" stop-color="#080b12"/></linearGradient>
<radialGradient id="glow" cx="0.75" cy="0.1" r="0.9">
<stop offset="0" stop-color="#00d4ff" stop-opacity="0.16"/><stop offset="0.6" stop-color="#00d4ff" stop-opacity="0"/></radialGradient></defs>
<rect width="600" height="400" fill="url(#g)"/>
<rect width="600" height="400" fill="url(#glow)"/>
<line x1="510" y1="185" x2="520" y2="298" stroke="#00d4ff" stroke-width="1" stroke-opacity="0.058"/><line x1="510" y1="185" x2="506" y2="121" stroke="#00d4ff" stroke-width="1" stroke-opacity="0.111"/><line x1="510" y1="185" x2="407" y2="270" stroke="#00d4ff" stroke-width="1" stroke-opacity="0.037"/><line x1="117" y1="351" x2="55" y2="367" stroke="#00d4ff" stroke-width="1" stroke-opacity="0.111"/><line x1="117" y1="351" x2="87" y2="212" stroke="#00d4ff" stroke-width="1" stroke-opacity="0.028"/><line x1="117" y1="351" x2="140" y2="329" stroke="#00d4ff" stroke-width="1" stroke-opacity="0.146"/><line x1="55" y1="367" x2="87" y2="212" stroke="#00d4ff" stroke-width="1" stroke-opacity="0.01"/><line x1="55" y1="367" x2="140" y2="329" stroke="#00d4ff" stroke-width="1" stroke-opacity="0.08"/><line x1="294" y1="280" x2="386" y2="334" stroke="#00d4ff" stroke-width="1" stroke-opacity="0.066"/><line x1="294" y1="280" x2="407" y2="270" stroke="#00d4ff" stroke-width="1" stroke-opacity="0.058"/><line x1="294" y1="280" x2="140" y2="329" stroke="#00d4ff" stroke-width="1" stroke-opacity="0.007"/><line x1="386" y1="334" x2="520" y2="298" stroke="#00d4ff" stroke-width="1" stroke-opacity="0.031"/><line x1="386" y1="334" x2="407" y2="270" stroke="#00d4ff" stroke-width="1" stroke-opacity="0.108"/><line x1="271" y1="105" x2="180" y2="148" stroke="#00d4ff" stroke-width="1" stroke-opacity="0.072"/><line x1="271" y1="105" x2="274" y2="100" stroke="#00d4ff" stroke-width="1" stroke-opacity="0.174"/><line x1="271" y1="105" x2="334" y2="82" stroke="#00d4ff" stroke-width="1" stroke-opacity="0.108"/><line x1="180" y1="148" x2="87" y2="212" stroke="#00d4ff" stroke-width="1" stroke-opacity="0.059"/><line x1="180" y1="148" x2="274" y2="100" stroke="#00d4ff" stroke-width="1" stroke-opacity="0.067"/><line x1="180" y1="148" x2="334" y2="82" stroke="#00d4ff" stroke-width="1" stroke-opacity="0.0"/><line x1="87" y1="212" x2="140" y2="329" stroke="#00d4ff" stroke-width="1" stroke-opacity="0.042"/><line x1="274" y1="100" x2="334" y2="82" stroke="#00d4ff" stroke-width="1" stroke-opacity="0.113"/><line x1="520" y1="298" x2="407" y2="270" stroke="#00d4ff" stroke-width="1" stroke-opacity="0.055"/><circle cx="510" cy="185" r="2" fill="#00d4ff" fill-opacity="0.5"/><circle cx="117" cy="351" r="3" fill="#00d4ff" fill-opacity="0.5"/><circle cx="55" cy="367" r="2" fill="#00d4ff" fill-opacity="0.5"/><circle cx="294" cy="280" r="3" fill="#00d4ff" fill-opacity="0.5"/><circle cx="386" cy="334" r="3" fill="#00d4ff" fill-opacity="0.5"/><circle cx="271" cy="105" r="4" fill="#00d4ff" fill-opacity="0.5"/><circle cx="180" cy="148" r="2" fill="#00d4ff" fill-opacity="0.5"/><circle cx="87" cy="212" r="3" fill="#00d4ff" fill-opacity="0.5"/><circle cx="274" cy="100" r="4" fill="#00d4ff" fill-opacity="0.5"/><circle cx="520" cy="298" r="4" fill="#00d4ff" fill-opacity="0.5"/><circle cx="506" cy="121" r="3" fill="#00d4ff" fill-opacity="0.5"/><circle cx="407" cy="270" r="3" fill="#00d4ff" fill-opacity="0.5"/><circle cx="140" cy="329" r="2" fill="#00d4ff" fill-opacity="0.5"/><circle cx="334" cy="82" r="2" fill="#00d4ff" fill-opacity="0.5"/>
<rect x="0" y="0" width="600" height="400" fill="none" stroke="#243049" stroke-width="1"/>
<text x="300" y="168" font-family="Verdana,Geneva,sans-serif" font-size="13" letter-spacing="2.5" fill="#00d4ff" text-anchor="middle" font-weight="bold">PERFORMANCE</text>
<text x="300" y="220" font-family="Georgia,'Times New Roman',serif" font-size="34" fill="#e8eaf0" text-anchor="middle" font-weight="bold">Core Web Vitals</text>
<text x="584" y="386" font-family="Verdana,Geneva,sans-serif" font-size="13" fill="#8b93a8" text-anchor="end" font-weight="bold">webnetic</text>
</svg>