<svg xmlns="http://www.w3.org/2000/svg" viewBox="0 0 1200 500" width="1200" height="500" role="img">
<defs><linearGradient id="g" x1="0" y1="0" x2="1" y2="1">
<stop offset="0" stop-color="#0d1120"/><stop offset="1" stop-color="#080b12"/></linearGradient>
<radialGradient id="glow" cx="0.75" cy="0.1" r="0.9">
<stop offset="0" stop-color="#00d4ff" stop-opacity="0.16"/><stop offset="0.6" stop-color="#00d4ff" stop-opacity="0"/></radialGradient></defs>
<rect width="1200" height="500" fill="url(#g)"/>
<rect width="1200" height="500" fill="url(#glow)"/>
<line x1="764" y1="47" x2="1056" y2="33" stroke="#00d4ff" stroke-width="1" stroke-opacity="0.023"/><line x1="764" y1="47" x2="462" y2="118" stroke="#00d4ff" stroke-width="1" stroke-opacity="0.014"/><line x1="764" y1="47" x2="638" y2="307" stroke="#00d4ff" stroke-width="1" stroke-opacity="0.025"/><line x1="764" y1="47" x2="1081" y2="57" stroke="#00d4ff" stroke-width="1" stroke-opacity="0.01"/><line x1="764" y1="47" x2="746" y2="92" stroke="#00d4ff" stroke-width="1" stroke-opacity="0.154"/><line x1="423" y1="355" x2="238" y2="133" stroke="#00d4ff" stroke-width="1" stroke-opacity="0.025"/><line x1="423" y1="355" x2="150" y2="454" stroke="#00d4ff" stroke-width="1" stroke-opacity="0.024"/><line x1="423" y1="355" x2="462" y2="118" stroke="#00d4ff" stroke-width="1" stroke-opacity="0.051"/><line x1="423" y1="355" x2="638" y2="307" stroke="#00d4ff" stroke-width="1" stroke-opacity="0.062"/><line x1="423" y1="355" x2="351" y2="74" stroke="#00d4ff" stroke-width="1" stroke-opacity="0.025"/><line x1="423" y1="355" x2="248" y2="321" stroke="#00d4ff" stroke-width="1" stroke-opacity="0.084"/><line x1="238" y1="133" x2="62" y2="290" stroke="#00d4ff" stroke-width="1" stroke-opacity="0.054"/><line x1="238" y1="133" x2="150" y2="454" stroke="#00d4ff" stroke-width="1" stroke-opacity="0.002"/><line x1="238" y1="133" x2="462" y2="118" stroke="#00d4ff" stroke-width="1" stroke-opacity="0.06"/><line x1="238" y1="133" x2="351" y2="74" stroke="#00d4ff" stroke-width="1" stroke-opacity="0.112"/><line x1="238" y1="133" x2="248" y2="321" stroke="#00d4ff" stroke-width="1" stroke-opacity="0.079"/><line x1="1056" y1="33" x2="1142" y2="289" stroke="#00d4ff" stroke-width="1" stroke-opacity="0.035"/><line x1="1056" y1="33" x2="1081" y2="57" stroke="#00d4ff" stroke-width="1" stroke-opacity="0.161"/><line x1="1056" y1="33" x2="1159" y2="91" stroke="#00d4ff" stroke-width="1" stroke-opacity="0.117"/><line x1="1056" y1="33" x2="746" y2="92" stroke="#00d4ff" stroke-width="1" stroke-opacity="0.011"/><line x1="1142" y1="289" x2="1081" y2="57" stroke="#00d4ff" stroke-width="1" stroke-opacity="0.051"/><line x1="1142" y1="289" x2="1159" y2="91" stroke="#00d4ff" stroke-width="1" stroke-opacity="0.074"/><line x1="62" y1="290" x2="150" y2="454" stroke="#00d4ff" stroke-width="1" stroke-opacity="0.08"/><line x1="62" y1="290" x2="248" y2="321" stroke="#00d4ff" stroke-width="1" stroke-opacity="0.079"/><line x1="150" y1="454" x2="248" y2="321" stroke="#00d4ff" stroke-width="1" stroke-opacity="0.091"/><line x1="462" y1="118" x2="638" y2="307" stroke="#00d4ff" stroke-width="1" stroke-opacity="0.042"/><line x1="462" y1="118" x2="351" y2="74" stroke="#00d4ff" stroke-width="1" stroke-opacity="0.116"/><line x1="462" y1="118" x2="248" y2="321" stroke="#00d4ff" stroke-width="1" stroke-opacity="0.022"/><line x1="462" y1="118" x2="746" y2="92" stroke="#00d4ff" stroke-width="1" stroke-opacity="0.027"/><line x1="638" y1="307" x2="746" y2="92" stroke="#00d4ff" stroke-width="1" stroke-opacity="0.051"/><line x1="1081" y1="57" x2="1159" y2="91" stroke="#00d4ff" stroke-width="1" stroke-opacity="0.134"/><line x1="351" y1="74" x2="248" y2="321" stroke="#00d4ff" stroke-width="1" stroke-opacity="0.037"/><circle cx="764" cy="47" r="4" fill="#00d4ff" fill-opacity="0.5"/><circle cx="423" cy="355" r="4" fill="#00d4ff" fill-opacity="0.5"/><circle cx="238" cy="133" r="2" fill="#00d4ff" fill-opacity="0.5"/><circle cx="1056" cy="33" r="2" fill="#00d4ff" fill-opacity="0.5"/><circle cx="1142" cy="289" r="3" fill="#00d4ff" fill-opacity="0.5"/><circle cx="62" cy="290" r="4" fill="#00d4ff" fill-opacity="0.5"/><circle cx="150" cy="454" r="2" fill="#00d4ff" fill-opacity="0.5"/><circle cx="462" cy="118" r="3" fill="#00d4ff" fill-opacity="0.5"/><circle cx="638" cy="307" r="4" fill="#00d4ff" fill-opacity="0.5"/><circle cx="1081" cy="57" r="2" fill="#00d4ff" fill-opacity="0.5"/><circle cx="351" cy="74" r="4" fill="#00d4ff" fill-opacity="0.5"/><circle cx="1159" cy="91" r="2" fill="#00d4ff" fill-opacity="0.5"/><circle cx="248" cy="321" r="2" fill="#00d4ff" fill-opacity="0.5"/><circle cx="746" cy="92" r="4" fill="#00d4ff" fill-opacity="0.5"/>
<rect x="0" y="0" width="1200" height="500" fill="none" stroke="#243049" stroke-width="1"/>
<text x="600" y="210" font-family="Verdana,Geneva,sans-serif" font-size="17" letter-spacing="2.5" fill="#00d4ff" text-anchor="middle" font-weight="bold">GENERATIVE ENGINE OPTIMISATION</text>
<text x="600" y="275" font-family="Georgia,'Times New Roman',serif" font-size="42" fill="#e8eaf0" text-anchor="middle" font-weight="bold">What is GEO?</text>
<text x="1184" y="486" font-family="Verdana,Geneva,sans-serif" font-size="17" fill="#8b93a8" text-anchor="end" font-weight="bold">webnetic</text>
</svg>