<svg xmlns="http://www.w3.org/2000/svg" viewBox="0 0 640 480" width="640" height="480" role="img">
<defs><linearGradient id="g" x1="0" y1="0" x2="1" y2="1">
<stop offset="0" stop-color="#0d1120"/><stop offset="1" stop-color="#080b12"/></linearGradient>
<radialGradient id="glow" cx="0.75" cy="0.1" r="0.9">
<stop offset="0" stop-color="#00d4ff" stop-opacity="0.16"/><stop offset="0.6" stop-color="#00d4ff" stop-opacity="0"/></radialGradient></defs>
<rect width="640" height="480" fill="url(#g)"/>
<rect width="640" height="480" fill="url(#glow)"/>
<line x1="570" y1="124" x2="488" y2="130" stroke="#00d4ff" stroke-width="1" stroke-opacity="0.097"/><line x1="570" y1="124" x2="456" y2="131" stroke="#00d4ff" stroke-width="1" stroke-opacity="0.065"/><line x1="570" y1="124" x2="479" y2="263" stroke="#00d4ff" stroke-width="1" stroke-opacity="0.013"/><line x1="288" y1="161" x2="277" y2="223" stroke="#00d4ff" stroke-width="1" stroke-opacity="0.117"/><line x1="288" y1="161" x2="365" y2="301" stroke="#00d4ff" stroke-width="1" stroke-opacity="0.02"/><line x1="288" y1="161" x2="269" y2="73" stroke="#00d4ff" stroke-width="1" stroke-opacity="0.09"/><line x1="288" y1="161" x2="397" y2="198" stroke="#00d4ff" stroke-width="1" stroke-opacity="0.064"/><line x1="288" y1="161" x2="456" y2="131" stroke="#00d4ff" stroke-width="1" stroke-opacity="0.009"/><line x1="277" y1="223" x2="365" y2="301" stroke="#00d4ff" stroke-width="1" stroke-opacity="0.062"/><line x1="277" y1="223" x2="324" y2="366" stroke="#00d4ff" stroke-width="1" stroke-opacity="0.029"/><line x1="277" y1="223" x2="292" y2="396" stroke="#00d4ff" stroke-width="1" stroke-opacity="0.006"/><line x1="277" y1="223" x2="269" y2="73" stroke="#00d4ff" stroke-width="1" stroke-opacity="0.029"/><line x1="277" y1="223" x2="397" y2="198" stroke="#00d4ff" stroke-width="1" stroke-opacity="0.057"/><line x1="365" y1="301" x2="324" y2="366" stroke="#00d4ff" stroke-width="1" stroke-opacity="0.103"/><line x1="365" y1="301" x2="292" y2="396" stroke="#00d4ff" stroke-width="1" stroke-opacity="0.06"/><line x1="365" y1="301" x2="397" y2="198" stroke="#00d4ff" stroke-width="1" stroke-opacity="0.072"/><line x1="365" y1="301" x2="479" y2="263" stroke="#00d4ff" stroke-width="1" stroke-opacity="0.059"/><line x1="185" y1="396" x2="46" y2="330" stroke="#00d4ff" stroke-width="1" stroke-opacity="0.025"/><line x1="185" y1="396" x2="324" y2="366" stroke="#00d4ff" stroke-width="1" stroke-opacity="0.037"/><line x1="185" y1="396" x2="292" y2="396" stroke="#00d4ff" stroke-width="1" stroke-opacity="0.073"/><line x1="324" y1="366" x2="292" y2="396" stroke="#00d4ff" stroke-width="1" stroke-opacity="0.136"/><line x1="137" y1="54" x2="269" y2="73" stroke="#00d4ff" stroke-width="1" stroke-opacity="0.046"/><line x1="269" y1="73" x2="397" y2="198" stroke="#00d4ff" stroke-width="1" stroke-opacity="0.0"/><line x1="397" y1="198" x2="488" y2="130" stroke="#00d4ff" stroke-width="1" stroke-opacity="0.066"/><line x1="397" y1="198" x2="456" y2="131" stroke="#00d4ff" stroke-width="1" stroke-opacity="0.09"/><line x1="397" y1="198" x2="479" y2="263" stroke="#00d4ff" stroke-width="1" stroke-opacity="0.075"/><line x1="488" y1="130" x2="456" y2="131" stroke="#00d4ff" stroke-width="1" stroke-opacity="0.148"/><line x1="488" y1="130" x2="479" y2="263" stroke="#00d4ff" stroke-width="1" stroke-opacity="0.046"/><line x1="456" y1="131" x2="479" y2="263" stroke="#00d4ff" stroke-width="1" stroke-opacity="0.045"/><circle cx="570" cy="124" r="4" fill="#00d4ff" fill-opacity="0.5"/><circle cx="288" cy="161" r="3" fill="#00d4ff" fill-opacity="0.5"/><circle cx="277" cy="223" r="2" fill="#00d4ff" fill-opacity="0.5"/><circle cx="365" cy="301" r="4" fill="#00d4ff" fill-opacity="0.5"/><circle cx="185" cy="396" r="4" fill="#00d4ff" fill-opacity="0.5"/><circle cx="46" cy="330" r="3" fill="#00d4ff" fill-opacity="0.5"/><circle cx="324" cy="366" r="4" fill="#00d4ff" fill-opacity="0.5"/><circle cx="137" cy="54" r="3" fill="#00d4ff" fill-opacity="0.5"/><circle cx="292" cy="396" r="2" fill="#00d4ff" fill-opacity="0.5"/><circle cx="269" cy="73" r="2" fill="#00d4ff" fill-opacity="0.5"/><circle cx="397" cy="198" r="4" fill="#00d4ff" fill-opacity="0.5"/><circle cx="488" cy="130" r="2" fill="#00d4ff" fill-opacity="0.5"/><circle cx="456" cy="131" r="4" fill="#00d4ff" fill-opacity="0.5"/><circle cx="479" cy="263" r="2" fill="#00d4ff" fill-opacity="0.5"/>
<rect x="0" y="0" width="640" height="480" fill="none" stroke="#243049" stroke-width="1"/>
<text x="320" y="202" font-family="Verdana,Geneva,sans-serif" font-size="16" letter-spacing="2.5" fill="#00d4ff" text-anchor="middle" font-weight="bold">GEO</text>
<text x="320" y="264" font-family="Georgia,'Times New Roman',serif" font-size="40" fill="#e8eaf0" text-anchor="middle" font-weight="bold">AI Citations</text>
<text x="624" y="466" font-family="Verdana,Geneva,sans-serif" font-size="16" fill="#8b93a8" text-anchor="end" font-weight="bold">webnetic</text>
</svg>