<svg xmlns="http://www.w3.org/2000/svg" viewBox="0 0 600 400" width="600" height="400" role="img">
<defs><linearGradient id="g" x1="0" y1="0" x2="1" y2="1">
<stop offset="0" stop-color="#0d1120"/><stop offset="1" stop-color="#080b12"/></linearGradient>
<radialGradient id="glow" cx="0.75" cy="0.1" r="0.9">
<stop offset="0" stop-color="#00d4ff" stop-opacity="0.16"/><stop offset="0.6" stop-color="#00d4ff" stop-opacity="0"/></radialGradient></defs>
<rect width="600" height="400" fill="url(#g)"/>
<rect width="600" height="400" fill="url(#glow)"/>
<line x1="268" y1="223" x2="228" y2="151" stroke="#00d4ff" stroke-width="1" stroke-opacity="0.092"/><line x1="268" y1="223" x2="257" y2="62" stroke="#00d4ff" stroke-width="1" stroke-opacity="0.007"/><line x1="268" y1="223" x2="169" y2="136" stroke="#00d4ff" stroke-width="1" stroke-opacity="0.039"/><line x1="268" y1="223" x2="191" y2="299" stroke="#00d4ff" stroke-width="1" stroke-opacity="0.064"/><line x1="268" y1="223" x2="321" y2="295" stroke="#00d4ff" stroke-width="1" stroke-opacity="0.084"/><line x1="55" y1="265" x2="55" y2="181" stroke="#00d4ff" stroke-width="1" stroke-opacity="0.09"/><line x1="55" y1="265" x2="117" y2="307" stroke="#00d4ff" stroke-width="1" stroke-opacity="0.1"/><line x1="55" y1="265" x2="191" y2="299" stroke="#00d4ff" stroke-width="1" stroke-opacity="0.03"/><line x1="55" y1="265" x2="76" y2="144" stroke="#00d4ff" stroke-width="1" stroke-opacity="0.048"/><line x1="228" y1="151" x2="257" y2="62" stroke="#00d4ff" stroke-width="1" stroke-opacity="0.08"/><line x1="228" y1="151" x2="169" y2="136" stroke="#00d4ff" stroke-width="1" stroke-opacity="0.115"/><line x1="228" y1="151" x2="191" y2="299" stroke="#00d4ff" stroke-width="1" stroke-opacity="0.017"/><line x1="228" y1="151" x2="76" y2="144" stroke="#00d4ff" stroke-width="1" stroke-opacity="0.017"/><line x1="59" y1="88" x2="55" y2="181" stroke="#00d4ff" stroke-width="1" stroke-opacity="0.08"/><line x1="59" y1="88" x2="169" y2="136" stroke="#00d4ff" stroke-width="1" stroke-opacity="0.051"/><line x1="59" y1="88" x2="76" y2="144" stroke="#00d4ff" stroke-width="1" stroke-opacity="0.117"/><line x1="539" y1="85" x2="473" y2="32" stroke="#00d4ff" stroke-width="1" stroke-opacity="0.089"/><line x1="539" y1="85" x2="498" y2="209" stroke="#00d4ff" stroke-width="1" stroke-opacity="0.04"/><line x1="55" y1="181" x2="117" y2="307" stroke="#00d4ff" stroke-width="1" stroke-opacity="0.03"/><line x1="55" y1="181" x2="169" y2="136" stroke="#00d4ff" stroke-width="1" stroke-opacity="0.049"/><line x1="55" y1="181" x2="76" y2="144" stroke="#00d4ff" stroke-width="1" stroke-opacity="0.134"/><line x1="257" y1="62" x2="169" y2="136" stroke="#00d4ff" stroke-width="1" stroke-opacity="0.057"/><line x1="117" y1="307" x2="191" y2="299" stroke="#00d4ff" stroke-width="1" stroke-opacity="0.1"/><line x1="169" y1="136" x2="191" y2="299" stroke="#00d4ff" stroke-width="1" stroke-opacity="0.004"/><line x1="169" y1="136" x2="76" y2="144" stroke="#00d4ff" stroke-width="1" stroke-opacity="0.08"/><line x1="191" y1="299" x2="321" y2="295" stroke="#00d4ff" stroke-width="1" stroke-opacity="0.041"/><circle cx="268" cy="223" r="3" fill="#00d4ff" fill-opacity="0.5"/><circle cx="55" cy="265" r="2" fill="#00d4ff" fill-opacity="0.5"/><circle cx="228" cy="151" r="3" fill="#00d4ff" fill-opacity="0.5"/><circle cx="59" cy="88" r="3" fill="#00d4ff" fill-opacity="0.5"/><circle cx="539" cy="85" r="2" fill="#00d4ff" fill-opacity="0.5"/><circle cx="55" cy="181" r="3" fill="#00d4ff" fill-opacity="0.5"/><circle cx="257" cy="62" r="4" fill="#00d4ff" fill-opacity="0.5"/><circle cx="117" cy="307" r="3" fill="#00d4ff" fill-opacity="0.5"/><circle cx="169" cy="136" r="4" fill="#00d4ff" fill-opacity="0.5"/><circle cx="191" cy="299" r="4" fill="#00d4ff" fill-opacity="0.5"/><circle cx="321" cy="295" r="3" fill="#00d4ff" fill-opacity="0.5"/><circle cx="76" cy="144" r="4" fill="#00d4ff" fill-opacity="0.5"/><circle cx="473" cy="32" r="4" fill="#00d4ff" fill-opacity="0.5"/><circle cx="498" cy="209" r="3" fill="#00d4ff" fill-opacity="0.5"/>
<rect x="0" y="0" width="600" height="400" fill="none" stroke="#243049" stroke-width="1"/>
<text x="300" y="168" font-family="Verdana,Geneva,sans-serif" font-size="13" letter-spacing="2.5" fill="#00d4ff" text-anchor="middle" font-weight="bold">DOMAIN · AI</text>
<text x="300" y="220" font-family="Georgia,'Times New Roman',serif" font-size="34" fill="#e8eaf0" text-anchor="middle" font-weight="bold">HashifyAI</text>
<text x="584" y="386" font-family="Verdana,Geneva,sans-serif" font-size="13" fill="#8b93a8" text-anchor="end" font-weight="bold">webnetic</text>
</svg>