<svg xmlns="http://www.w3.org/2000/svg" viewBox="0 0 1200 630" width="1200" height="630" role="img">
<defs><linearGradient id="g" x1="0" y1="0" x2="1" y2="1">
<stop offset="0" stop-color="#0d1120"/><stop offset="1" stop-color="#080b12"/></linearGradient>
<radialGradient id="glow" cx="0.75" cy="0.1" r="0.9">
<stop offset="0" stop-color="#00d4ff" stop-opacity="0.16"/><stop offset="0.6" stop-color="#00d4ff" stop-opacity="0"/></radialGradient></defs>
<rect width="1200" height="630" fill="url(#g)"/>
<rect width="1200" height="630" fill="url(#glow)"/>
<line x1="1144" y1="438" x2="1123" y2="280" stroke="#00d4ff" stroke-width="1" stroke-opacity="0.095"/><line x1="1144" y1="438" x2="1166" y2="546" stroke="#00d4ff" stroke-width="1" stroke-opacity="0.121"/><line x1="1144" y1="438" x2="1010" y2="488" stroke="#00d4ff" stroke-width="1" stroke-opacity="0.103"/><line x1="259" y1="495" x2="549" y2="383" stroke="#00d4ff" stroke-width="1" stroke-opacity="0.013"/><line x1="259" y1="495" x2="125" y2="362" stroke="#00d4ff" stroke-width="1" stroke-opacity="0.079"/><line x1="259" y1="495" x2="471" y2="439" stroke="#00d4ff" stroke-width="1" stroke-opacity="0.063"/><line x1="259" y1="495" x2="529" y2="564" stroke="#00d4ff" stroke-width="1" stroke-opacity="0.031"/><line x1="259" y1="495" x2="387" y2="210" stroke="#00d4ff" stroke-width="1" stroke-opacity="0.013"/><line x1="259" y1="495" x2="453" y2="282" stroke="#00d4ff" stroke-width="1" stroke-opacity="0.026"/><line x1="609" y1="504" x2="549" y2="383" stroke="#00d4ff" stroke-width="1" stroke-opacity="0.108"/><line x1="609" y1="504" x2="610" y2="457" stroke="#00d4ff" stroke-width="1" stroke-opacity="0.155"/><line x1="609" y1="504" x2="471" y2="439" stroke="#00d4ff" stroke-width="1" stroke-opacity="0.098"/><line x1="609" y1="504" x2="669" y2="462" stroke="#00d4ff" stroke-width="1" stroke-opacity="0.141"/><line x1="609" y1="504" x2="529" y2="564" stroke="#00d4ff" stroke-width="1" stroke-opacity="0.126"/><line x1="609" y1="504" x2="453" y2="282" stroke="#00d4ff" stroke-width="1" stroke-opacity="0.035"/><line x1="549" y1="383" x2="610" y2="457" stroke="#00d4ff" stroke-width="1" stroke-opacity="0.129"/><line x1="549" y1="383" x2="471" y2="439" stroke="#00d4ff" stroke-width="1" stroke-opacity="0.129"/><line x1="549" y1="383" x2="669" y2="462" stroke="#00d4ff" stroke-width="1" stroke-opacity="0.103"/><line x1="549" y1="383" x2="529" y2="564" stroke="#00d4ff" stroke-width="1" stroke-opacity="0.082"/><line x1="549" y1="383" x2="387" y2="210" stroke="#00d4ff" stroke-width="1" stroke-opacity="0.053"/><line x1="549" y1="383" x2="453" y2="282" stroke="#00d4ff" stroke-width="1" stroke-opacity="0.105"/><line x1="610" y1="457" x2="471" y2="439" stroke="#00d4ff" stroke-width="1" stroke-opacity="0.105"/><line x1="610" y1="457" x2="669" y2="462" stroke="#00d4ff" stroke-width="1" stroke-opacity="0.148"/><line x1="610" y1="457" x2="529" y2="564" stroke="#00d4ff" stroke-width="1" stroke-opacity="0.108"/><line x1="610" y1="457" x2="387" y2="210" stroke="#00d4ff" stroke-width="1" stroke-opacity="0.002"/><line x1="610" y1="457" x2="453" y2="282" stroke="#00d4ff" stroke-width="1" stroke-opacity="0.054"/><line x1="125" y1="362" x2="387" y2="210" stroke="#00d4ff" stroke-width="1" stroke-opacity="0.018"/><line x1="471" y1="439" x2="669" y2="462" stroke="#00d4ff" stroke-width="1" stroke-opacity="0.073"/><line x1="471" y1="439" x2="529" y2="564" stroke="#00d4ff" stroke-width="1" stroke-opacity="0.106"/><line x1="471" y1="439" x2="387" y2="210" stroke="#00d4ff" stroke-width="1" stroke-opacity="0.049"/><line x1="471" y1="439" x2="453" y2="282" stroke="#00d4ff" stroke-width="1" stroke-opacity="0.095"/><line x1="669" y1="462" x2="529" y2="564" stroke="#00d4ff" stroke-width="1" stroke-opacity="0.087"/><line x1="669" y1="462" x2="453" y2="282" stroke="#00d4ff" stroke-width="1" stroke-opacity="0.029"/><line x1="529" y1="564" x2="453" y2="282" stroke="#00d4ff" stroke-width="1" stroke-opacity="0.024"/><line x1="1123" y1="280" x2="1166" y2="546" stroke="#00d4ff" stroke-width="1" stroke-opacity="0.036"/><line x1="1123" y1="280" x2="1010" y2="488" stroke="#00d4ff" stroke-width="1" stroke-opacity="0.053"/><line x1="387" y1="210" x2="453" y2="282" stroke="#00d4ff" stroke-width="1" stroke-opacity="0.128"/><line x1="1166" y1="546" x2="1010" y2="488" stroke="#00d4ff" stroke-width="1" stroke-opacity="0.091"/><circle cx="1144" cy="438" r="3" fill="#00d4ff" fill-opacity="0.5"/><circle cx="259" cy="495" r="2" fill="#00d4ff" fill-opacity="0.5"/><circle cx="609" cy="504" r="3" fill="#00d4ff" fill-opacity="0.5"/><circle cx="549" cy="383" r="2" fill="#00d4ff" fill-opacity="0.5"/><circle cx="610" cy="457" r="2" fill="#00d4ff" fill-opacity="0.5"/><circle cx="125" cy="362" r="2" fill="#00d4ff" fill-opacity="0.5"/><circle cx="471" cy="439" r="2" fill="#00d4ff" fill-opacity="0.5"/><circle cx="669" cy="462" r="4" fill="#00d4ff" fill-opacity="0.5"/><circle cx="529" cy="564" r="3" fill="#00d4ff" fill-opacity="0.5"/><circle cx="1123" cy="280" r="3" fill="#00d4ff" fill-opacity="0.5"/><circle cx="387" cy="210" r="4" fill="#00d4ff" fill-opacity="0.5"/><circle cx="453" cy="282" r="4" fill="#00d4ff" fill-opacity="0.5"/><circle cx="1166" cy="546" r="2" fill="#00d4ff" fill-opacity="0.5"/><circle cx="1010" cy="488" r="3" fill="#00d4ff" fill-opacity="0.5"/>
<rect x="0" y="0" width="1200" height="630" fill="none" stroke="#243049" stroke-width="1"/>
<text x="600" y="265" font-family="Verdana,Geneva,sans-serif" font-size="21" letter-spacing="2.5" fill="#00d4ff" text-anchor="middle" font-weight="bold">SYDNEY · WEB · SEO · AEO · GEO · AI</text>
<text x="600" y="346" font-family="Georgia,'Times New Roman',serif" font-size="53" fill="#e8eaf0" text-anchor="middle" font-weight="bold">Webnetic Digital Solutions</text>
<text x="1184" y="616" font-family="Verdana,Geneva,sans-serif" font-size="21" fill="#8b93a8" text-anchor="end" font-weight="bold">webnetic</text>
</svg>