<svg xmlns="http://www.w3.org/2000/svg" viewBox="0 0 600 400" width="600" height="400" role="img">
<defs><linearGradient id="g" x1="0" y1="0" x2="1" y2="1">
<stop offset="0" stop-color="#0d1120"/><stop offset="1" stop-color="#080b12"/></linearGradient>
<radialGradient id="glow" cx="0.75" cy="0.1" r="0.9">
<stop offset="0" stop-color="#00d4ff" stop-opacity="0.16"/><stop offset="0.6" stop-color="#00d4ff" stop-opacity="0"/></radialGradient></defs>
<rect width="600" height="400" fill="url(#g)"/>
<rect width="600" height="400" fill="url(#glow)"/>
<line x1="520" y1="160" x2="514" y2="122" stroke="#00d4ff" stroke-width="1" stroke-opacity="0.139"/><line x1="520" y1="160" x2="505" y2="314" stroke="#00d4ff" stroke-width="1" stroke-opacity="0.014"/><line x1="520" y1="160" x2="388" y2="116" stroke="#00d4ff" stroke-width="1" stroke-opacity="0.031"/><line x1="520" y1="160" x2="412" y2="197" stroke="#00d4ff" stroke-width="1" stroke-opacity="0.058"/><line x1="302" y1="237" x2="169" y2="142" stroke="#00d4ff" stroke-width="1" stroke-opacity="0.005"/><line x1="302" y1="237" x2="242" y2="225" stroke="#00d4ff" stroke-width="1" stroke-opacity="0.114"/><line x1="302" y1="237" x2="335" y2="228" stroke="#00d4ff" stroke-width="1" stroke-opacity="0.143"/><line x1="302" y1="237" x2="172" y2="267" stroke="#00d4ff" stroke-width="1" stroke-opacity="0.037"/><line x1="302" y1="237" x2="388" y2="116" stroke="#00d4ff" stroke-width="1" stroke-opacity="0.021"/><line x1="302" y1="237" x2="412" y2="197" stroke="#00d4ff" stroke-width="1" stroke-opacity="0.055"/><line x1="302" y1="237" x2="262" y2="106" stroke="#00d4ff" stroke-width="1" stroke-opacity="0.033"/><line x1="514" y1="122" x2="388" y2="116" stroke="#00d4ff" stroke-width="1" stroke-opacity="0.045"/><line x1="514" y1="122" x2="412" y2="197" stroke="#00d4ff" stroke-width="1" stroke-opacity="0.044"/><line x1="505" y1="314" x2="412" y2="197" stroke="#00d4ff" stroke-width="1" stroke-opacity="0.02"/><line x1="169" y1="142" x2="154" y2="48" stroke="#00d4ff" stroke-width="1" stroke-opacity="0.078"/><line x1="169" y1="142" x2="242" y2="225" stroke="#00d4ff" stroke-width="1" stroke-opacity="0.062"/><line x1="169" y1="142" x2="172" y2="267" stroke="#00d4ff" stroke-width="1" stroke-opacity="0.046"/><line x1="169" y1="142" x2="158" y2="35" stroke="#00d4ff" stroke-width="1" stroke-opacity="0.065"/><line x1="169" y1="142" x2="262" y2="106" stroke="#00d4ff" stroke-width="1" stroke-opacity="0.073"/><line x1="154" y1="48" x2="158" y2="35" stroke="#00d4ff" stroke-width="1" stroke-opacity="0.165"/><line x1="154" y1="48" x2="262" y2="106" stroke="#00d4ff" stroke-width="1" stroke-opacity="0.049"/><line x1="82" y1="367" x2="172" y2="267" stroke="#00d4ff" stroke-width="1" stroke-opacity="0.036"/><line x1="242" y1="225" x2="335" y2="228" stroke="#00d4ff" stroke-width="1" stroke-opacity="0.08"/><line x1="242" y1="225" x2="172" y2="267" stroke="#00d4ff" stroke-width="1" stroke-opacity="0.093"/><line x1="242" y1="225" x2="262" y2="106" stroke="#00d4ff" stroke-width="1" stroke-opacity="0.051"/><line x1="335" y1="228" x2="172" y2="267" stroke="#00d4ff" stroke-width="1" stroke-opacity="0.0"/><line x1="335" y1="228" x2="388" y2="116" stroke="#00d4ff" stroke-width="1" stroke-opacity="0.047"/><line x1="335" y1="228" x2="412" y2="197" stroke="#00d4ff" stroke-width="1" stroke-opacity="0.091"/><line x1="335" y1="228" x2="262" y2="106" stroke="#00d4ff" stroke-width="1" stroke-opacity="0.028"/><line x1="388" y1="116" x2="412" y2="197" stroke="#00d4ff" stroke-width="1" stroke-opacity="0.089"/><line x1="388" y1="116" x2="262" y2="106" stroke="#00d4ff" stroke-width="1" stroke-opacity="0.045"/><line x1="158" y1="35" x2="262" y2="106" stroke="#00d4ff" stroke-width="1" stroke-opacity="0.045"/><circle cx="520" cy="160" r="3" fill="#00d4ff" fill-opacity="0.5"/><circle cx="302" cy="237" r="2" fill="#00d4ff" fill-opacity="0.5"/><circle cx="514" cy="122" r="4" fill="#00d4ff" fill-opacity="0.5"/><circle cx="505" cy="314" r="2" fill="#00d4ff" fill-opacity="0.5"/><circle cx="169" cy="142" r="3" fill="#00d4ff" fill-opacity="0.5"/><circle cx="154" cy="48" r="4" fill="#00d4ff" fill-opacity="0.5"/><circle cx="82" cy="367" r="3" fill="#00d4ff" fill-opacity="0.5"/><circle cx="242" cy="225" r="3" fill="#00d4ff" fill-opacity="0.5"/><circle cx="335" cy="228" r="3" fill="#00d4ff" fill-opacity="0.5"/><circle cx="172" cy="267" r="4" fill="#00d4ff" fill-opacity="0.5"/><circle cx="388" cy="116" r="3" fill="#00d4ff" fill-opacity="0.5"/><circle cx="158" cy="35" r="4" fill="#00d4ff" fill-opacity="0.5"/><circle cx="412" cy="197" r="3" fill="#00d4ff" fill-opacity="0.5"/><circle cx="262" cy="106" r="3" fill="#00d4ff" fill-opacity="0.5"/>
<rect x="0" y="0" width="600" height="400" fill="none" stroke="#243049" stroke-width="1"/>
<text x="300" y="168" font-family="Verdana,Geneva,sans-serif" font-size="13" letter-spacing="2.5" fill="#00d4ff" text-anchor="middle" font-weight="bold">TRAVEL · WORDPRESS</text>
<text x="300" y="220" font-family="Georgia,'Times New Roman',serif" font-size="34" fill="#e8eaf0" text-anchor="middle" font-weight="bold">OneLife Tours Zakynthos</text>
<text x="584" y="386" font-family="Verdana,Geneva,sans-serif" font-size="13" fill="#8b93a8" text-anchor="end" font-weight="bold">webnetic</text>
</svg>