<svg xmlns="http://www.w3.org/2000/svg" viewBox="0 0 600 400" width="600" height="400" role="img">
<defs><linearGradient id="g" x1="0" y1="0" x2="1" y2="1">
<stop offset="0" stop-color="#0d1120"/><stop offset="1" stop-color="#080b12"/></linearGradient>
<radialGradient id="glow" cx="0.75" cy="0.1" r="0.9">
<stop offset="0" stop-color="#00d4ff" stop-opacity="0.16"/><stop offset="0.6" stop-color="#00d4ff" stop-opacity="0"/></radialGradient></defs>
<rect width="600" height="400" fill="url(#g)"/>
<rect width="600" height="400" fill="url(#glow)"/>
<line x1="513" y1="57" x2="536" y2="107" stroke="#00d4ff" stroke-width="1" stroke-opacity="0.121"/><line x1="513" y1="57" x2="524" y2="137" stroke="#00d4ff" stroke-width="1" stroke-opacity="0.093"/><line x1="513" y1="57" x2="437" y2="184" stroke="#00d4ff" stroke-width="1" stroke-opacity="0.021"/><line x1="372" y1="230" x2="216" y2="202" stroke="#00d4ff" stroke-width="1" stroke-opacity="0.01"/><line x1="372" y1="230" x2="301" y2="365" stroke="#00d4ff" stroke-width="1" stroke-opacity="0.017"/><line x1="372" y1="230" x2="338" y2="106" stroke="#00d4ff" stroke-width="1" stroke-opacity="0.042"/><line x1="372" y1="230" x2="437" y2="184" stroke="#00d4ff" stroke-width="1" stroke-opacity="0.095"/><line x1="372" y1="230" x2="494" y2="337" stroke="#00d4ff" stroke-width="1" stroke-opacity="0.006"/><line x1="194" y1="366" x2="74" y2="289" stroke="#00d4ff" stroke-width="1" stroke-opacity="0.027"/><line x1="194" y1="366" x2="216" y2="202" stroke="#00d4ff" stroke-width="1" stroke-opacity="0.003"/><line x1="194" y1="366" x2="301" y2="365" stroke="#00d4ff" stroke-width="1" stroke-opacity="0.065"/><line x1="194" y1="366" x2="190" y2="267" stroke="#00d4ff" stroke-width="1" stroke-opacity="0.074"/><line x1="74" y1="289" x2="216" y2="202" stroke="#00d4ff" stroke-width="1" stroke-opacity="0.002"/><line x1="74" y1="289" x2="203" y2="196" stroke="#00d4ff" stroke-width="1" stroke-opacity="0.01"/><line x1="74" y1="289" x2="190" y2="267" stroke="#00d4ff" stroke-width="1" stroke-opacity="0.053"/><line x1="216" y1="202" x2="203" y2="196" stroke="#00d4ff" stroke-width="1" stroke-opacity="0.165"/><line x1="216" y1="202" x2="338" y2="106" stroke="#00d4ff" stroke-width="1" stroke-opacity="0.014"/><line x1="216" y1="202" x2="190" y2="267" stroke="#00d4ff" stroke-width="1" stroke-opacity="0.105"/><line x1="536" y1="107" x2="524" y2="137" stroke="#00d4ff" stroke-width="1" stroke-opacity="0.145"/><line x1="536" y1="107" x2="437" y2="184" stroke="#00d4ff" stroke-width="1" stroke-opacity="0.046"/><line x1="536" y1="107" x2="538" y2="262" stroke="#00d4ff" stroke-width="1" stroke-opacity="0.014"/><line x1="524" y1="137" x2="437" y2="184" stroke="#00d4ff" stroke-width="1" stroke-opacity="0.074"/><line x1="524" y1="137" x2="538" y2="262" stroke="#00d4ff" stroke-width="1" stroke-opacity="0.045"/><line x1="301" y1="365" x2="190" y2="267" stroke="#00d4ff" stroke-width="1" stroke-opacity="0.021"/><line x1="203" y1="196" x2="338" y2="106" stroke="#00d4ff" stroke-width="1" stroke-opacity="0.006"/><line x1="203" y1="196" x2="190" y2="267" stroke="#00d4ff" stroke-width="1" stroke-opacity="0.103"/><line x1="338" y1="106" x2="437" y2="184" stroke="#00d4ff" stroke-width="1" stroke-opacity="0.045"/><line x1="437" y1="184" x2="538" y2="262" stroke="#00d4ff" stroke-width="1" stroke-opacity="0.043"/><line x1="437" y1="184" x2="494" y2="337" stroke="#00d4ff" stroke-width="1" stroke-opacity="0.005"/><line x1="538" y1="262" x2="494" y2="337" stroke="#00d4ff" stroke-width="1" stroke-opacity="0.087"/><circle cx="513" cy="57" r="2" fill="#00d4ff" fill-opacity="0.5"/><circle cx="372" cy="230" r="3" fill="#00d4ff" fill-opacity="0.5"/><circle cx="194" cy="366" r="2" fill="#00d4ff" fill-opacity="0.5"/><circle cx="74" cy="289" r="4" fill="#00d4ff" fill-opacity="0.5"/><circle cx="216" cy="202" r="4" fill="#00d4ff" fill-opacity="0.5"/><circle cx="536" cy="107" r="2" fill="#00d4ff" fill-opacity="0.5"/><circle cx="524" cy="137" r="4" fill="#00d4ff" fill-opacity="0.5"/><circle cx="301" cy="365" r="3" fill="#00d4ff" fill-opacity="0.5"/><circle cx="203" cy="196" r="2" fill="#00d4ff" fill-opacity="0.5"/><circle cx="338" cy="106" r="3" fill="#00d4ff" fill-opacity="0.5"/><circle cx="190" cy="267" r="4" fill="#00d4ff" fill-opacity="0.5"/><circle cx="437" cy="184" r="2" fill="#00d4ff" fill-opacity="0.5"/><circle cx="538" cy="262" r="4" fill="#00d4ff" fill-opacity="0.5"/><circle cx="494" cy="337" r="4" fill="#00d4ff" fill-opacity="0.5"/>
<rect x="0" y="0" width="600" height="400" fill="none" stroke="#243049" stroke-width="1"/>
<text x="300" y="168" font-family="Verdana,Geneva,sans-serif" font-size="13" letter-spacing="2.5" fill="#00d4ff" text-anchor="middle" font-weight="bold">LOCAL SEO</text>
<text x="300" y="220" font-family="Georgia,'Times New Roman',serif" font-size="34" fill="#e8eaf0" text-anchor="middle" font-weight="bold">Sasa Grup</text>
<text x="584" y="386" font-family="Verdana,Geneva,sans-serif" font-size="13" fill="#8b93a8" text-anchor="end" font-weight="bold">webnetic</text>
</svg>