<svg xmlns="http://www.w3.org/2000/svg" viewBox="0 0 640 480" width="640" height="480" role="img">
<defs><linearGradient id="g" x1="0" y1="0" x2="1" y2="1">
<stop offset="0" stop-color="#0d1120"/><stop offset="1" stop-color="#080b12"/></linearGradient>
<radialGradient id="glow" cx="0.75" cy="0.1" r="0.9">
<stop offset="0" stop-color="#00d4ff" stop-opacity="0.16"/><stop offset="0.6" stop-color="#00d4ff" stop-opacity="0"/></radialGradient></defs>
<rect width="640" height="480" fill="url(#g)"/>
<rect width="640" height="480" fill="url(#glow)"/>
<line x1="288" y1="254" x2="181" y2="265" stroke="#00d4ff" stroke-width="1" stroke-opacity="0.072"/><line x1="288" y1="254" x2="171" y2="358" stroke="#00d4ff" stroke-width="1" stroke-opacity="0.023"/><line x1="288" y1="254" x2="178" y2="293" stroke="#00d4ff" stroke-width="1" stroke-opacity="0.063"/><line x1="288" y1="254" x2="333" y2="202" stroke="#00d4ff" stroke-width="1" stroke-opacity="0.111"/><line x1="288" y1="254" x2="391" y2="347" stroke="#00d4ff" stroke-width="1" stroke-opacity="0.041"/><line x1="288" y1="254" x2="248" y2="183" stroke="#00d4ff" stroke-width="1" stroke-opacity="0.098"/><line x1="97" y1="349" x2="181" y2="265" stroke="#00d4ff" stroke-width="1" stroke-opacity="0.061"/><line x1="97" y1="349" x2="171" y2="358" stroke="#00d4ff" stroke-width="1" stroke-opacity="0.105"/><line x1="97" y1="349" x2="178" y2="293" stroke="#00d4ff" stroke-width="1" stroke-opacity="0.081"/><line x1="181" y1="265" x2="171" y2="358" stroke="#00d4ff" stroke-width="1" stroke-opacity="0.086"/><line x1="181" y1="265" x2="178" y2="293" stroke="#00d4ff" stroke-width="1" stroke-opacity="0.152"/><line x1="181" y1="265" x2="333" y2="202" stroke="#00d4ff" stroke-width="1" stroke-opacity="0.015"/><line x1="181" y1="265" x2="178" y2="96" stroke="#00d4ff" stroke-width="1" stroke-opacity="0.01"/><line x1="181" y1="265" x2="248" y2="183" stroke="#00d4ff" stroke-width="1" stroke-opacity="0.074"/><line x1="171" y1="358" x2="178" y2="293" stroke="#00d4ff" stroke-width="1" stroke-opacity="0.114"/><line x1="604" y1="125" x2="594" y2="155" stroke="#00d4ff" stroke-width="1" stroke-opacity="0.148"/><line x1="178" y1="293" x2="248" y2="183" stroke="#00d4ff" stroke-width="1" stroke-opacity="0.049"/><line x1="570" y1="337" x2="464" y2="404" stroke="#00d4ff" stroke-width="1" stroke-opacity="0.054"/><line x1="570" y1="337" x2="569" y2="373" stroke="#00d4ff" stroke-width="1" stroke-opacity="0.144"/><line x1="333" y1="202" x2="391" y2="347" stroke="#00d4ff" stroke-width="1" stroke-opacity="0.023"/><line x1="333" y1="202" x2="248" y2="183" stroke="#00d4ff" stroke-width="1" stroke-opacity="0.093"/><line x1="391" y1="347" x2="464" y2="404" stroke="#00d4ff" stroke-width="1" stroke-opacity="0.087"/><line x1="178" y1="96" x2="248" y2="183" stroke="#00d4ff" stroke-width="1" stroke-opacity="0.068"/><line x1="464" y1="404" x2="569" y2="373" stroke="#00d4ff" stroke-width="1" stroke-opacity="0.07"/><circle cx="288" cy="254" r="2" fill="#00d4ff" fill-opacity="0.5"/><circle cx="97" cy="349" r="4" fill="#00d4ff" fill-opacity="0.5"/><circle cx="181" cy="265" r="2" fill="#00d4ff" fill-opacity="0.5"/><circle cx="171" cy="358" r="3" fill="#00d4ff" fill-opacity="0.5"/><circle cx="604" cy="125" r="2" fill="#00d4ff" fill-opacity="0.5"/><circle cx="178" cy="293" r="3" fill="#00d4ff" fill-opacity="0.5"/><circle cx="570" cy="337" r="4" fill="#00d4ff" fill-opacity="0.5"/><circle cx="333" cy="202" r="3" fill="#00d4ff" fill-opacity="0.5"/><circle cx="391" cy="347" r="2" fill="#00d4ff" fill-opacity="0.5"/><circle cx="594" cy="155" r="4" fill="#00d4ff" fill-opacity="0.5"/><circle cx="178" cy="96" r="2" fill="#00d4ff" fill-opacity="0.5"/><circle cx="464" cy="404" r="4" fill="#00d4ff" fill-opacity="0.5"/><circle cx="248" cy="183" r="4" fill="#00d4ff" fill-opacity="0.5"/><circle cx="569" cy="373" r="3" fill="#00d4ff" fill-opacity="0.5"/>
<rect x="0" y="0" width="640" height="480" fill="none" stroke="#243049" stroke-width="1"/>
<text x="320" y="202" font-family="Verdana,Geneva,sans-serif" font-size="16" letter-spacing="2.5" fill="#00d4ff" text-anchor="middle" font-weight="bold">SEO</text>
<text x="320" y="264" font-family="Georgia,'Times New Roman',serif" font-size="40" fill="#e8eaf0" text-anchor="middle" font-weight="bold">Top of Google</text>
<text x="624" y="466" font-family="Verdana,Geneva,sans-serif" font-size="16" fill="#8b93a8" text-anchor="end" font-weight="bold">webnetic</text>
</svg>