<svg xmlns="http://www.w3.org/2000/svg" viewBox="0 0 600 400" width="600" height="400" role="img">
<defs><linearGradient id="g" x1="0" y1="0" x2="1" y2="1">
<stop offset="0" stop-color="#0d1120"/><stop offset="1" stop-color="#080b12"/></linearGradient>
<radialGradient id="glow" cx="0.75" cy="0.1" r="0.9">
<stop offset="0" stop-color="#00d4ff" stop-opacity="0.16"/><stop offset="0.6" stop-color="#00d4ff" stop-opacity="0"/></radialGradient></defs>
<rect width="600" height="400" fill="url(#g)"/>
<rect width="600" height="400" fill="url(#glow)"/>
<line x1="334" y1="342" x2="175" y2="333" stroke="#00d4ff" stroke-width="1" stroke-opacity="0.009"/><line x1="334" y1="342" x2="461" y2="340" stroke="#00d4ff" stroke-width="1" stroke-opacity="0.044"/><line x1="334" y1="342" x2="278" y2="322" stroke="#00d4ff" stroke-width="1" stroke-opacity="0.116"/><line x1="334" y1="342" x2="334" y2="304" stroke="#00d4ff" stroke-width="1" stroke-opacity="0.139"/><line x1="556" y1="343" x2="566" y2="311" stroke="#00d4ff" stroke-width="1" stroke-opacity="0.144"/><line x1="556" y1="343" x2="461" y2="340" stroke="#00d4ff" stroke-width="1" stroke-opacity="0.078"/><line x1="556" y1="343" x2="524" y2="356" stroke="#00d4ff" stroke-width="1" stroke-opacity="0.143"/><line x1="427" y1="163" x2="314" y2="167" stroke="#00d4ff" stroke-width="1" stroke-opacity="0.059"/><line x1="566" y1="311" x2="461" y2="340" stroke="#00d4ff" stroke-width="1" stroke-opacity="0.063"/><line x1="566" y1="311" x2="524" y2="356" stroke="#00d4ff" stroke-width="1" stroke-opacity="0.114"/><line x1="175" y1="333" x2="45" y2="273" stroke="#00d4ff" stroke-width="1" stroke-opacity="0.027"/><line x1="175" y1="333" x2="278" y2="322" stroke="#00d4ff" stroke-width="1" stroke-opacity="0.069"/><line x1="175" y1="333" x2="112" y2="341" stroke="#00d4ff" stroke-width="1" stroke-opacity="0.112"/><line x1="175" y1="333" x2="135" y2="296" stroke="#00d4ff" stroke-width="1" stroke-opacity="0.122"/><line x1="175" y1="333" x2="334" y2="304" stroke="#00d4ff" stroke-width="1" stroke-opacity="0.007"/><line x1="461" y1="340" x2="524" y2="356" stroke="#00d4ff" stroke-width="1" stroke-opacity="0.11"/><line x1="461" y1="340" x2="334" y2="304" stroke="#00d4ff" stroke-width="1" stroke-opacity="0.039"/><line x1="45" y1="273" x2="112" y2="341" stroke="#00d4ff" stroke-width="1" stroke-opacity="0.078"/><line x1="45" y1="273" x2="135" y2="296" stroke="#00d4ff" stroke-width="1" stroke-opacity="0.08"/><line x1="45" y1="273" x2="56" y2="208" stroke="#00d4ff" stroke-width="1" stroke-opacity="0.109"/><line x1="278" y1="322" x2="112" y2="341" stroke="#00d4ff" stroke-width="1" stroke-opacity="0.001"/><line x1="278" y1="322" x2="135" y2="296" stroke="#00d4ff" stroke-width="1" stroke-opacity="0.024"/><line x1="278" y1="322" x2="314" y2="167" stroke="#00d4ff" stroke-width="1" stroke-opacity="0.01"/><line x1="278" y1="322" x2="334" y2="304" stroke="#00d4ff" stroke-width="1" stroke-opacity="0.117"/><line x1="112" y1="341" x2="135" y2="296" stroke="#00d4ff" stroke-width="1" stroke-opacity="0.126"/><line x1="112" y1="341" x2="56" y2="208" stroke="#00d4ff" stroke-width="1" stroke-opacity="0.025"/><line x1="135" y1="296" x2="56" y2="208" stroke="#00d4ff" stroke-width="1" stroke-opacity="0.053"/><line x1="314" y1="167" x2="334" y2="304" stroke="#00d4ff" stroke-width="1" stroke-opacity="0.032"/><circle cx="334" cy="342" r="3" fill="#00d4ff" fill-opacity="0.5"/><circle cx="556" cy="343" r="3" fill="#00d4ff" fill-opacity="0.5"/><circle cx="427" cy="163" r="3" fill="#00d4ff" fill-opacity="0.5"/><circle cx="566" cy="311" r="3" fill="#00d4ff" fill-opacity="0.5"/><circle cx="175" cy="333" r="3" fill="#00d4ff" fill-opacity="0.5"/><circle cx="461" cy="340" r="4" fill="#00d4ff" fill-opacity="0.5"/><circle cx="45" cy="273" r="4" fill="#00d4ff" fill-opacity="0.5"/><circle cx="524" cy="356" r="2" fill="#00d4ff" fill-opacity="0.5"/><circle cx="278" cy="322" r="3" fill="#00d4ff" fill-opacity="0.5"/><circle cx="112" cy="341" r="2" fill="#00d4ff" fill-opacity="0.5"/><circle cx="135" cy="296" r="4" fill="#00d4ff" fill-opacity="0.5"/><circle cx="56" cy="208" r="3" fill="#00d4ff" fill-opacity="0.5"/><circle cx="314" cy="167" r="2" fill="#00d4ff" fill-opacity="0.5"/><circle cx="334" cy="304" r="2" fill="#00d4ff" fill-opacity="0.5"/>
<rect x="0" y="0" width="600" height="400" fill="none" stroke="#243049" stroke-width="1"/>
<text x="300" y="168" font-family="Verdana,Geneva,sans-serif" font-size="13" letter-spacing="2.5" fill="#00d4ff" text-anchor="middle" font-weight="bold">SOCIAL MEDIA</text>
<text x="300" y="220" font-family="Georgia,'Times New Roman',serif" font-size="34" fill="#e8eaf0" text-anchor="middle" font-weight="bold">Consistency Wins</text>
<text x="584" y="386" font-family="Verdana,Geneva,sans-serif" font-size="13" fill="#8b93a8" text-anchor="end" font-weight="bold">webnetic</text>
</svg>