<svg xmlns="http://www.w3.org/2000/svg" viewBox="0 0 640 480" width="640" height="480" role="img">
<defs><linearGradient id="g" x1="0" y1="0" x2="1" y2="1">
<stop offset="0" stop-color="#0d1120"/><stop offset="1" stop-color="#080b12"/></linearGradient>
<radialGradient id="glow" cx="0.75" cy="0.1" r="0.9">
<stop offset="0" stop-color="#00d4ff" stop-opacity="0.16"/><stop offset="0.6" stop-color="#00d4ff" stop-opacity="0"/></radialGradient></defs>
<rect width="640" height="480" fill="url(#g)"/>
<rect width="640" height="480" fill="url(#glow)"/>
<line x1="47" y1="163" x2="172" y2="47" stroke="#00d4ff" stroke-width="1" stroke-opacity="0.009"/><line x1="47" y1="163" x2="80" y2="232" stroke="#00d4ff" stroke-width="1" stroke-opacity="0.103"/><line x1="47" y1="163" x2="110" y2="306" stroke="#00d4ff" stroke-width="1" stroke-opacity="0.023"/><line x1="47" y1="163" x2="34" y2="329" stroke="#00d4ff" stroke-width="1" stroke-opacity="0.013"/><line x1="377" y1="131" x2="383" y2="299" stroke="#00d4ff" stroke-width="1" stroke-opacity="0.011"/><line x1="377" y1="131" x2="493" y2="243" stroke="#00d4ff" stroke-width="1" stroke-opacity="0.018"/><line x1="377" y1="131" x2="457" y2="250" stroke="#00d4ff" stroke-width="1" stroke-opacity="0.036"/><line x1="377" y1="131" x2="333" y2="131" stroke="#00d4ff" stroke-width="1" stroke-opacity="0.136"/><line x1="80" y1="232" x2="110" y2="306" stroke="#00d4ff" stroke-width="1" stroke-opacity="0.1"/><line x1="80" y1="232" x2="34" y2="329" stroke="#00d4ff" stroke-width="1" stroke-opacity="0.072"/><line x1="110" y1="306" x2="34" y2="329" stroke="#00d4ff" stroke-width="1" stroke-opacity="0.1"/><line x1="110" y1="306" x2="119" y2="435" stroke="#00d4ff" stroke-width="1" stroke-opacity="0.05"/><line x1="549" y1="246" x2="383" y2="299" stroke="#00d4ff" stroke-width="1" stroke-opacity="0.005"/><line x1="549" y1="246" x2="493" y2="243" stroke="#00d4ff" stroke-width="1" stroke-opacity="0.124"/><line x1="549" y1="246" x2="457" y2="250" stroke="#00d4ff" stroke-width="1" stroke-opacity="0.088"/><line x1="549" y1="246" x2="555" y2="81" stroke="#00d4ff" stroke-width="1" stroke-opacity="0.014"/><line x1="383" y1="299" x2="493" y2="243" stroke="#00d4ff" stroke-width="1" stroke-opacity="0.056"/><line x1="383" y1="299" x2="386" y2="438" stroke="#00d4ff" stroke-width="1" stroke-opacity="0.04"/><line x1="383" y1="299" x2="457" y2="250" stroke="#00d4ff" stroke-width="1" stroke-opacity="0.091"/><line x1="383" y1="299" x2="333" y2="131" stroke="#00d4ff" stroke-width="1" stroke-opacity="0.004"/><line x1="493" y1="243" x2="457" y2="250" stroke="#00d4ff" stroke-width="1" stroke-opacity="0.143"/><line x1="493" y1="243" x2="555" y2="81" stroke="#00d4ff" stroke-width="1" stroke-opacity="0.006"/><line x1="457" y1="250" x2="333" y2="131" stroke="#00d4ff" stroke-width="1" stroke-opacity="0.007"/><line x1="34" y1="329" x2="119" y2="435" stroke="#00d4ff" stroke-width="1" stroke-opacity="0.044"/><circle cx="47" cy="163" r="3" fill="#00d4ff" fill-opacity="0.5"/><circle cx="172" cy="47" r="3" fill="#00d4ff" fill-opacity="0.5"/><circle cx="377" cy="131" r="3" fill="#00d4ff" fill-opacity="0.5"/><circle cx="80" cy="232" r="4" fill="#00d4ff" fill-opacity="0.5"/><circle cx="110" cy="306" r="2" fill="#00d4ff" fill-opacity="0.5"/><circle cx="549" cy="246" r="4" fill="#00d4ff" fill-opacity="0.5"/><circle cx="383" cy="299" r="2" fill="#00d4ff" fill-opacity="0.5"/><circle cx="493" cy="243" r="3" fill="#00d4ff" fill-opacity="0.5"/><circle cx="386" cy="438" r="3" fill="#00d4ff" fill-opacity="0.5"/><circle cx="457" cy="250" r="2" fill="#00d4ff" fill-opacity="0.5"/><circle cx="34" cy="329" r="2" fill="#00d4ff" fill-opacity="0.5"/><circle cx="555" cy="81" r="2" fill="#00d4ff" fill-opacity="0.5"/><circle cx="119" cy="435" r="2" fill="#00d4ff" fill-opacity="0.5"/><circle cx="333" cy="131" r="4" fill="#00d4ff" fill-opacity="0.5"/>
<rect x="0" y="0" width="640" height="480" fill="none" stroke="#243049" stroke-width="1"/>
<text x="320" y="202" font-family="Verdana,Geneva,sans-serif" font-size="16" letter-spacing="2.5" fill="#00d4ff" text-anchor="middle" font-weight="bold">SOCIAL MEDIA</text>
<text x="320" y="264" font-family="Georgia,'Times New Roman',serif" font-size="40" fill="#e8eaf0" text-anchor="middle" font-weight="bold">Content Calendar</text>
<text x="624" y="466" font-family="Verdana,Geneva,sans-serif" font-size="16" fill="#8b93a8" text-anchor="end" font-weight="bold">webnetic</text>
</svg>