<svg xmlns="http://www.w3.org/2000/svg" viewBox="0 0 640 480" width="640" height="480" role="img">
<defs><linearGradient id="g" x1="0" y1="0" x2="1" y2="1">
<stop offset="0" stop-color="#0d1120"/><stop offset="1" stop-color="#080b12"/></linearGradient>
<radialGradient id="glow" cx="0.75" cy="0.1" r="0.9">
<stop offset="0" stop-color="#00d4ff" stop-opacity="0.16"/><stop offset="0.6" stop-color="#00d4ff" stop-opacity="0"/></radialGradient></defs>
<rect width="640" height="480" fill="url(#g)"/>
<rect width="640" height="480" fill="url(#glow)"/>
<line x1="455" y1="445" x2="607" y2="365" stroke="#00d4ff" stroke-width="1" stroke-opacity="0.007"/><line x1="455" y1="445" x2="453" y2="321" stroke="#00d4ff" stroke-width="1" stroke-opacity="0.055"/><line x1="455" y1="445" x2="554" y2="314" stroke="#00d4ff" stroke-width="1" stroke-opacity="0.015"/><line x1="455" y1="445" x2="330" y2="439" stroke="#00d4ff" stroke-width="1" stroke-opacity="0.054"/><line x1="188" y1="162" x2="158" y2="260" stroke="#00d4ff" stroke-width="1" stroke-opacity="0.077"/><line x1="188" y1="162" x2="265" y2="151" stroke="#00d4ff" stroke-width="1" stroke-opacity="0.102"/><line x1="188" y1="162" x2="63" y2="186" stroke="#00d4ff" stroke-width="1" stroke-opacity="0.052"/><line x1="607" y1="365" x2="520" y2="244" stroke="#00d4ff" stroke-width="1" stroke-opacity="0.03"/><line x1="607" y1="365" x2="453" y2="321" stroke="#00d4ff" stroke-width="1" stroke-opacity="0.019"/><line x1="607" y1="365" x2="554" y2="314" stroke="#00d4ff" stroke-width="1" stroke-opacity="0.106"/><line x1="607" y1="365" x2="578" y2="221" stroke="#00d4ff" stroke-width="1" stroke-opacity="0.032"/><line x1="585" y1="174" x2="520" y2="244" stroke="#00d4ff" stroke-width="1" stroke-opacity="0.084"/><line x1="585" y1="174" x2="554" y2="314" stroke="#00d4ff" stroke-width="1" stroke-opacity="0.036"/><line x1="585" y1="174" x2="578" y2="221" stroke="#00d4ff" stroke-width="1" stroke-opacity="0.132"/><line x1="47" y1="316" x2="158" y2="260" stroke="#00d4ff" stroke-width="1" stroke-opacity="0.055"/><line x1="47" y1="316" x2="67" y2="304" stroke="#00d4ff" stroke-width="1" stroke-opacity="0.157"/><line x1="47" y1="316" x2="63" y2="186" stroke="#00d4ff" stroke-width="1" stroke-opacity="0.048"/><line x1="520" y1="244" x2="453" y2="321" stroke="#00d4ff" stroke-width="1" stroke-opacity="0.077"/><line x1="520" y1="244" x2="554" y2="314" stroke="#00d4ff" stroke-width="1" stroke-opacity="0.102"/><line x1="520" y1="244" x2="578" y2="221" stroke="#00d4ff" stroke-width="1" stroke-opacity="0.117"/><line x1="453" y1="321" x2="554" y2="314" stroke="#00d4ff" stroke-width="1" stroke-opacity="0.078"/><line x1="453" y1="321" x2="578" y2="221" stroke="#00d4ff" stroke-width="1" stroke-opacity="0.019"/><line x1="453" y1="321" x2="330" y2="439" stroke="#00d4ff" stroke-width="1" stroke-opacity="0.009"/><line x1="158" y1="260" x2="265" y2="151" stroke="#00d4ff" stroke-width="1" stroke-opacity="0.027"/><line x1="158" y1="260" x2="67" y2="304" stroke="#00d4ff" stroke-width="1" stroke-opacity="0.078"/><line x1="158" y1="260" x2="63" y2="186" stroke="#00d4ff" stroke-width="1" stroke-opacity="0.059"/><line x1="554" y1="314" x2="578" y2="221" stroke="#00d4ff" stroke-width="1" stroke-opacity="0.084"/><line x1="67" y1="304" x2="63" y2="186" stroke="#00d4ff" stroke-width="1" stroke-opacity="0.061"/><circle cx="455" cy="445" r="4" fill="#00d4ff" fill-opacity="0.5"/><circle cx="188" cy="162" r="3" fill="#00d4ff" fill-opacity="0.5"/><circle cx="607" cy="365" r="4" fill="#00d4ff" fill-opacity="0.5"/><circle cx="585" cy="174" r="2" fill="#00d4ff" fill-opacity="0.5"/><circle cx="47" cy="316" r="4" fill="#00d4ff" fill-opacity="0.5"/><circle cx="520" cy="244" r="4" fill="#00d4ff" fill-opacity="0.5"/><circle cx="453" cy="321" r="3" fill="#00d4ff" fill-opacity="0.5"/><circle cx="158" cy="260" r="2" fill="#00d4ff" fill-opacity="0.5"/><circle cx="554" cy="314" r="3" fill="#00d4ff" fill-opacity="0.5"/><circle cx="265" cy="151" r="3" fill="#00d4ff" fill-opacity="0.5"/><circle cx="67" cy="304" r="2" fill="#00d4ff" fill-opacity="0.5"/><circle cx="578" cy="221" r="3" fill="#00d4ff" fill-opacity="0.5"/><circle cx="330" cy="439" r="2" fill="#00d4ff" fill-opacity="0.5"/><circle cx="63" cy="186" r="2" fill="#00d4ff" fill-opacity="0.5"/>
<rect x="0" y="0" width="640" height="480" fill="none" stroke="#243049" stroke-width="1"/>
<text x="320" y="202" font-family="Verdana,Geneva,sans-serif" font-size="16" letter-spacing="2.5" fill="#00d4ff" text-anchor="middle" font-weight="bold">WEBNETIC</text>
<text x="320" y="264" font-family="Georgia,'Times New Roman',serif" font-size="40" fill="#e8eaf0" text-anchor="middle" font-weight="bold">Sydney, Australia</text>
<text x="624" y="466" font-family="Verdana,Geneva,sans-serif" font-size="16" fill="#8b93a8" text-anchor="end" font-weight="bold">webnetic</text>
</svg>