<svg xmlns="http://www.w3.org/2000/svg" viewBox="0 0 400 400" width="400" height="400" role="img">
<defs><linearGradient id="g" x1="0" y1="0" x2="1" y2="1"><stop offset="0" stop-color="#111827"/><stop offset="1" stop-color="#0d1120"/></linearGradient></defs>
<rect width="400" height="400" fill="url(#g)"/>
<line x1="46" y1="188" x2="115" y2="143" stroke="#00d4ff" stroke-width="1" stroke-opacity="0.048"/><line x1="119" y1="56" x2="144" y2="127" stroke="#00d4ff" stroke-width="1" stroke-opacity="0.059"/><line x1="119" y1="56" x2="80" y2="80" stroke="#00d4ff" stroke-width="1" stroke-opacity="0.106"/><line x1="119" y1="56" x2="153" y2="104" stroke="#00d4ff" stroke-width="1" stroke-opacity="0.085"/><line x1="119" y1="56" x2="115" y2="143" stroke="#00d4ff" stroke-width="1" stroke-opacity="0.04"/><line x1="119" y1="56" x2="126" y2="81" stroke="#00d4ff" stroke-width="1" stroke-opacity="0.138"/><line x1="144" y1="127" x2="80" y2="80" stroke="#00d4ff" stroke-width="1" stroke-opacity="0.052"/><line x1="144" y1="127" x2="153" y2="104" stroke="#00d4ff" stroke-width="1" stroke-opacity="0.14"/><line x1="144" y1="127" x2="115" y2="143" stroke="#00d4ff" stroke-width="1" stroke-opacity="0.127"/><line x1="144" y1="127" x2="126" y2="81" stroke="#00d4ff" stroke-width="1" stroke-opacity="0.101"/><line x1="80" y1="80" x2="153" y2="104" stroke="#00d4ff" stroke-width="1" stroke-opacity="0.057"/><line x1="80" y1="80" x2="115" y2="143" stroke="#00d4ff" stroke-width="1" stroke-opacity="0.064"/><line x1="80" y1="80" x2="126" y2="81" stroke="#00d4ff" stroke-width="1" stroke-opacity="0.106"/><line x1="153" y1="104" x2="115" y2="143" stroke="#00d4ff" stroke-width="1" stroke-opacity="0.092"/><line x1="153" y1="104" x2="126" y2="81" stroke="#00d4ff" stroke-width="1" stroke-opacity="0.123"/><line x1="115" y1="143" x2="126" y2="81" stroke="#00d4ff" stroke-width="1" stroke-opacity="0.079"/><line x1="315" y1="43" x2="332" y2="88" stroke="#00d4ff" stroke-width="1" stroke-opacity="0.103"/><circle cx="46" cy="188" r="4" fill="#00d4ff" fill-opacity="0.5"/><circle cx="296" cy="295" r="3" fill="#00d4ff" fill-opacity="0.5"/><circle cx="119" cy="56" r="2" fill="#00d4ff" fill-opacity="0.5"/><circle cx="144" cy="127" r="4" fill="#00d4ff" fill-opacity="0.5"/><circle cx="80" cy="80" r="3" fill="#00d4ff" fill-opacity="0.5"/><circle cx="153" cy="104" r="2" fill="#00d4ff" fill-opacity="0.5"/><circle cx="115" cy="143" r="3" fill="#00d4ff" fill-opacity="0.5"/><circle cx="315" cy="43" r="3" fill="#00d4ff" fill-opacity="0.5"/><circle cx="126" cy="81" r="3" fill="#00d4ff" fill-opacity="0.5"/><circle cx="332" cy="88" r="4" fill="#00d4ff" fill-opacity="0.5"/>
<circle cx="200" cy="168" r="62" fill="#1a2235" stroke="#00d4ff" stroke-opacity="0.5" stroke-width="2"/>
<text x="200" y="190" font-family="Georgia,serif" font-size="56" fill="#00d4ff" text-anchor="middle" font-weight="bold">JM</text>
<text x="200" y="296" font-family="Verdana,sans-serif" font-size="18" letter-spacing="2" fill="#8b93a8" text-anchor="middle">WEBNETIC TEAM</text>
<rect x="0" y="0" width="400" height="400" fill="none" stroke="#243049" stroke-width="1"/>
</svg>