<svg xmlns="http://www.w3.org/2000/svg" viewBox="0 0 400 400" width="400" height="400" role="img">
<defs><linearGradient id="g" x1="0" y1="0" x2="1" y2="1"><stop offset="0" stop-color="#111827"/><stop offset="1" stop-color="#0d1120"/></linearGradient></defs>
<rect width="400" height="400" fill="url(#g)"/>
<line x1="314" y1="39" x2="326" y2="135" stroke="#00d4ff" stroke-width="1" stroke-opacity="0.025"/><line x1="314" y1="39" x2="357" y2="74" stroke="#00d4ff" stroke-width="1" stroke-opacity="0.091"/><line x1="220" y1="206" x2="186" y2="233" stroke="#00d4ff" stroke-width="1" stroke-opacity="0.11"/><line x1="220" y1="206" x2="214" y2="258" stroke="#00d4ff" stroke-width="1" stroke-opacity="0.096"/><line x1="220" y1="206" x2="268" y2="151" stroke="#00d4ff" stroke-width="1" stroke-opacity="0.063"/><line x1="220" y1="206" x2="208" y2="208" stroke="#00d4ff" stroke-width="1" stroke-opacity="0.16"/><line x1="186" y1="233" x2="214" y2="258" stroke="#00d4ff" stroke-width="1" stroke-opacity="0.12"/><line x1="186" y1="233" x2="154" y2="340" stroke="#00d4ff" stroke-width="1" stroke-opacity="0.001"/><line x1="186" y1="233" x2="208" y2="208" stroke="#00d4ff" stroke-width="1" stroke-opacity="0.126"/><line x1="214" y1="258" x2="154" y2="340" stroke="#00d4ff" stroke-width="1" stroke-opacity="0.017"/><line x1="214" y1="258" x2="208" y2="208" stroke="#00d4ff" stroke-width="1" stroke-opacity="0.099"/><line x1="268" y1="151" x2="208" y2="208" stroke="#00d4ff" stroke-width="1" stroke-opacity="0.047"/><line x1="268" y1="151" x2="326" y2="135" stroke="#00d4ff" stroke-width="1" stroke-opacity="0.083"/><line x1="326" y1="135" x2="357" y2="74" stroke="#00d4ff" stroke-width="1" stroke-opacity="0.07"/><circle cx="314" cy="39" r="3" fill="#00d4ff" fill-opacity="0.5"/><circle cx="51" cy="135" r="3" fill="#00d4ff" fill-opacity="0.5"/><circle cx="220" cy="206" r="4" fill="#00d4ff" fill-opacity="0.5"/><circle cx="186" cy="233" r="3" fill="#00d4ff" fill-opacity="0.5"/><circle cx="214" cy="258" r="2" fill="#00d4ff" fill-opacity="0.5"/><circle cx="154" cy="340" r="3" fill="#00d4ff" fill-opacity="0.5"/><circle cx="268" cy="151" r="2" fill="#00d4ff" fill-opacity="0.5"/><circle cx="208" cy="208" r="4" fill="#00d4ff" fill-opacity="0.5"/><circle cx="326" cy="135" r="2" fill="#00d4ff" fill-opacity="0.5"/><circle cx="357" cy="74" r="3" fill="#00d4ff" fill-opacity="0.5"/>
<circle cx="200" cy="168" r="62" fill="#1a2235" stroke="#00d4ff" stroke-opacity="0.5" stroke-width="2"/>
<text x="200" y="190" font-family="Georgia,serif" font-size="56" fill="#00d4ff" text-anchor="middle" font-weight="bold">AK</text>
<text x="200" y="296" font-family="Verdana,sans-serif" font-size="18" letter-spacing="2" fill="#8b93a8" text-anchor="middle">WEBNETIC TEAM</text>
<rect x="0" y="0" width="400" height="400" fill="none" stroke="#243049" stroke-width="1"/>
</svg>