<svg xmlns="http://www.w3.org/2000/svg" viewBox="0 0 600 400" width="600" height="400" role="img">
<defs><linearGradient id="g" x1="0" y1="0" x2="1" y2="1">
<stop offset="0" stop-color="#0d1120"/><stop offset="1" stop-color="#080b12"/></linearGradient>
<radialGradient id="glow" cx="0.75" cy="0.1" r="0.9">
<stop offset="0" stop-color="#00d4ff" stop-opacity="0.16"/><stop offset="0.6" stop-color="#00d4ff" stop-opacity="0"/></radialGradient></defs>
<rect width="600" height="400" fill="url(#g)"/>
<rect width="600" height="400" fill="url(#glow)"/>
<line x1="425" y1="313" x2="436" y2="148" stroke="#00d4ff" stroke-width="1" stroke-opacity="0.003"/><line x1="425" y1="313" x2="562" y2="286" stroke="#00d4ff" stroke-width="1" stroke-opacity="0.03"/><line x1="425" y1="313" x2="406" y2="339" stroke="#00d4ff" stroke-width="1" stroke-opacity="0.145"/><line x1="425" y1="313" x2="299" y2="359" stroke="#00d4ff" stroke-width="1" stroke-opacity="0.036"/><line x1="398" y1="129" x2="436" y2="148" stroke="#00d4ff" stroke-width="1" stroke-opacity="0.134"/><line x1="398" y1="129" x2="474" y2="143" stroke="#00d4ff" stroke-width="1" stroke-opacity="0.097"/><line x1="398" y1="129" x2="342" y2="143" stroke="#00d4ff" stroke-width="1" stroke-opacity="0.118"/><line x1="398" y1="129" x2="400" y2="89" stroke="#00d4ff" stroke-width="1" stroke-opacity="0.137"/><line x1="191" y1="328" x2="54" y2="344" stroke="#00d4ff" stroke-width="1" stroke-opacity="0.032"/><line x1="191" y1="328" x2="299" y2="359" stroke="#00d4ff" stroke-width="1" stroke-opacity="0.06"/><line x1="436" y1="148" x2="474" y2="143" stroke="#00d4ff" stroke-width="1" stroke-opacity="0.139"/><line x1="436" y1="148" x2="342" y2="143" stroke="#00d4ff" stroke-width="1" stroke-opacity="0.079"/><line x1="436" y1="148" x2="400" y2="89" stroke="#00d4ff" stroke-width="1" stroke-opacity="0.106"/><line x1="562" y1="286" x2="406" y2="339" stroke="#00d4ff" stroke-width="1" stroke-opacity="0.003"/><line x1="562" y1="286" x2="474" y2="143" stroke="#00d4ff" stroke-width="1" stroke-opacity="0.0"/><line x1="406" y1="339" x2="299" y2="359" stroke="#00d4ff" stroke-width="1" stroke-opacity="0.063"/><line x1="161" y1="117" x2="166" y2="98" stroke="#00d4ff" stroke-width="1" stroke-opacity="0.159"/><line x1="161" y1="117" x2="212" y2="43" stroke="#00d4ff" stroke-width="1" stroke-opacity="0.084"/><line x1="474" y1="143" x2="342" y2="143" stroke="#00d4ff" stroke-width="1" stroke-opacity="0.039"/><line x1="474" y1="143" x2="400" y2="89" stroke="#00d4ff" stroke-width="1" stroke-opacity="0.082"/><line x1="166" y1="98" x2="212" y2="43" stroke="#00d4ff" stroke-width="1" stroke-opacity="0.103"/><line x1="342" y1="143" x2="212" y2="43" stroke="#00d4ff" stroke-width="1" stroke-opacity="0.004"/><line x1="342" y1="143" x2="400" y2="89" stroke="#00d4ff" stroke-width="1" stroke-opacity="0.095"/><circle cx="425" cy="313" r="4" fill="#00d4ff" fill-opacity="0.5"/><circle cx="398" cy="129" r="3" fill="#00d4ff" fill-opacity="0.5"/><circle cx="191" cy="328" r="4" fill="#00d4ff" fill-opacity="0.5"/><circle cx="436" cy="148" r="2" fill="#00d4ff" fill-opacity="0.5"/><circle cx="54" cy="344" r="4" fill="#00d4ff" fill-opacity="0.5"/><circle cx="562" cy="286" r="3" fill="#00d4ff" fill-opacity="0.5"/><circle cx="406" cy="339" r="3" fill="#00d4ff" fill-opacity="0.5"/><circle cx="161" cy="117" r="2" fill="#00d4ff" fill-opacity="0.5"/><circle cx="299" cy="359" r="2" fill="#00d4ff" fill-opacity="0.5"/><circle cx="474" cy="143" r="4" fill="#00d4ff" fill-opacity="0.5"/><circle cx="166" cy="98" r="3" fill="#00d4ff" fill-opacity="0.5"/><circle cx="342" cy="143" r="4" fill="#00d4ff" fill-opacity="0.5"/><circle cx="212" cy="43" r="3" fill="#00d4ff" fill-opacity="0.5"/><circle cx="400" cy="89" r="4" fill="#00d4ff" fill-opacity="0.5"/>
<rect x="0" y="0" width="600" height="400" fill="none" stroke="#243049" stroke-width="1"/>
<text x="300" y="168" font-family="Verdana,Geneva,sans-serif" font-size="13" letter-spacing="2.5" fill="#00d4ff" text-anchor="middle" font-weight="bold">SEO</text>
<text x="300" y="220" font-family="Georgia,'Times New Roman',serif" font-size="34" fill="#e8eaf0" text-anchor="middle" font-weight="bold">Technical SEO</text>
<text x="584" y="386" font-family="Verdana,Geneva,sans-serif" font-size="13" fill="#8b93a8" text-anchor="end" font-weight="bold">webnetic</text>
</svg>