<svg xmlns="http://www.w3.org/2000/svg" viewBox="0 0 600 400" width="600" height="400" role="img">
<defs><linearGradient id="g" x1="0" y1="0" x2="1" y2="1">
<stop offset="0" stop-color="#0d1120"/><stop offset="1" stop-color="#080b12"/></linearGradient>
<radialGradient id="glow" cx="0.75" cy="0.1" r="0.9">
<stop offset="0" stop-color="#00d4ff" stop-opacity="0.16"/><stop offset="0.6" stop-color="#00d4ff" stop-opacity="0"/></radialGradient></defs>
<rect width="600" height="400" fill="url(#g)"/>
<rect width="600" height="400" fill="url(#glow)"/>
<line x1="42" y1="209" x2="171" y2="297" stroke="#00d4ff" stroke-width="1" stroke-opacity="0.013"/><line x1="42" y1="209" x2="87" y2="208" stroke="#00d4ff" stroke-width="1" stroke-opacity="0.132"/><line x1="42" y1="209" x2="164" y2="303" stroke="#00d4ff" stroke-width="1" stroke-opacity="0.015"/><line x1="42" y1="209" x2="48" y2="305" stroke="#00d4ff" stroke-width="1" stroke-opacity="0.077"/><line x1="378" y1="277" x2="325" y2="185" stroke="#00d4ff" stroke-width="1" stroke-opacity="0.066"/><line x1="378" y1="277" x2="302" y2="255" stroke="#00d4ff" stroke-width="1" stroke-opacity="0.095"/><line x1="378" y1="277" x2="305" y2="145" stroke="#00d4ff" stroke-width="1" stroke-opacity="0.018"/><line x1="171" y1="297" x2="87" y2="208" stroke="#00d4ff" stroke-width="1" stroke-opacity="0.049"/><line x1="171" y1="297" x2="182" y2="304" stroke="#00d4ff" stroke-width="1" stroke-opacity="0.166"/><line x1="171" y1="297" x2="302" y2="255" stroke="#00d4ff" stroke-width="1" stroke-opacity="0.033"/><line x1="171" y1="297" x2="164" y2="303" stroke="#00d4ff" stroke-width="1" stroke-opacity="0.17"/><line x1="171" y1="297" x2="48" y2="305" stroke="#00d4ff" stroke-width="1" stroke-opacity="0.048"/><line x1="325" y1="185" x2="302" y2="255" stroke="#00d4ff" stroke-width="1" stroke-opacity="0.101"/><line x1="325" y1="185" x2="305" y2="145" stroke="#00d4ff" stroke-width="1" stroke-opacity="0.132"/><line x1="87" y1="208" x2="182" y2="304" stroke="#00d4ff" stroke-width="1" stroke-opacity="0.035"/><line x1="87" y1="208" x2="164" y2="303" stroke="#00d4ff" stroke-width="1" stroke-opacity="0.049"/><line x1="87" y1="208" x2="48" y2="305" stroke="#00d4ff" stroke-width="1" stroke-opacity="0.068"/><line x1="182" y1="304" x2="302" y2="255" stroke="#00d4ff" stroke-width="1" stroke-opacity="0.041"/><line x1="182" y1="304" x2="164" y2="303" stroke="#00d4ff" stroke-width="1" stroke-opacity="0.161"/><line x1="182" y1="304" x2="48" y2="305" stroke="#00d4ff" stroke-width="1" stroke-opacity="0.036"/><line x1="302" y1="255" x2="305" y2="145" stroke="#00d4ff" stroke-width="1" stroke-opacity="0.062"/><line x1="302" y1="255" x2="164" y2="303" stroke="#00d4ff" stroke-width="1" stroke-opacity="0.023"/><line x1="164" y1="303" x2="48" y2="305" stroke="#00d4ff" stroke-width="1" stroke-opacity="0.056"/><line x1="509" y1="62" x2="565" y2="98" stroke="#00d4ff" stroke-width="1" stroke-opacity="0.109"/><line x1="509" y1="62" x2="505" y2="31" stroke="#00d4ff" stroke-width="1" stroke-opacity="0.147"/><line x1="565" y1="98" x2="505" y2="31" stroke="#00d4ff" stroke-width="1" stroke-opacity="0.084"/><circle cx="42" cy="209" r="2" fill="#00d4ff" fill-opacity="0.5"/><circle cx="378" cy="277" r="2" fill="#00d4ff" fill-opacity="0.5"/><circle cx="171" cy="297" r="2" fill="#00d4ff" fill-opacity="0.5"/><circle cx="325" cy="185" r="4" fill="#00d4ff" fill-opacity="0.5"/><circle cx="87" cy="208" r="2" fill="#00d4ff" fill-opacity="0.5"/><circle cx="182" cy="304" r="2" fill="#00d4ff" fill-opacity="0.5"/><circle cx="302" cy="255" r="3" fill="#00d4ff" fill-opacity="0.5"/><circle cx="91" cy="33" r="2" fill="#00d4ff" fill-opacity="0.5"/><circle cx="305" cy="145" r="2" fill="#00d4ff" fill-opacity="0.5"/><circle cx="164" cy="303" r="3" fill="#00d4ff" fill-opacity="0.5"/><circle cx="509" cy="62" r="4" fill="#00d4ff" fill-opacity="0.5"/><circle cx="565" cy="98" r="3" fill="#00d4ff" fill-opacity="0.5"/><circle cx="505" cy="31" r="4" fill="#00d4ff" fill-opacity="0.5"/><circle cx="48" cy="305" r="3" fill="#00d4ff" fill-opacity="0.5"/>
<rect x="0" y="0" width="600" height="400" fill="none" stroke="#243049" stroke-width="1"/>
<text x="300" y="168" font-family="Verdana,Geneva,sans-serif" font-size="13" letter-spacing="2.5" fill="#00d4ff" text-anchor="middle" font-weight="bold">AI AUTOMATION</text>
<text x="300" y="220" font-family="Georgia,'Times New Roman',serif" font-size="34" fill="#e8eaf0" text-anchor="middle" font-weight="bold">TechTrends Central</text>
<text x="584" y="386" font-family="Verdana,Geneva,sans-serif" font-size="13" fill="#8b93a8" text-anchor="end" font-weight="bold">webnetic</text>
</svg>