<svg xmlns="http://www.w3.org/2000/svg" viewBox="0 0 640 480" width="640" height="480" role="img">
<defs><linearGradient id="g" x1="0" y1="0" x2="1" y2="1">
<stop offset="0" stop-color="#0d1120"/><stop offset="1" stop-color="#080b12"/></linearGradient>
<radialGradient id="glow" cx="0.75" cy="0.1" r="0.9">
<stop offset="0" stop-color="#00d4ff" stop-opacity="0.16"/><stop offset="0.6" stop-color="#00d4ff" stop-opacity="0"/></radialGradient></defs>
<rect width="640" height="480" fill="url(#g)"/>
<rect width="640" height="480" fill="url(#glow)"/>
<line x1="452" y1="302" x2="391" y2="294" stroke="#00d4ff" stroke-width="1" stroke-opacity="0.118"/><line x1="452" y1="302" x2="557" y2="409" stroke="#00d4ff" stroke-width="1" stroke-opacity="0.029"/><line x1="452" y1="302" x2="478" y2="299" stroke="#00d4ff" stroke-width="1" stroke-opacity="0.154"/><line x1="452" y1="302" x2="444" y2="271" stroke="#00d4ff" stroke-width="1" stroke-opacity="0.148"/><line x1="452" y1="302" x2="457" y2="174" stroke="#00d4ff" stroke-width="1" stroke-opacity="0.051"/><line x1="64" y1="408" x2="120" y2="368" stroke="#00d4ff" stroke-width="1" stroke-opacity="0.111"/><line x1="59" y1="139" x2="116" y2="146" stroke="#00d4ff" stroke-width="1" stroke-opacity="0.122"/><line x1="391" y1="294" x2="236" y2="330" stroke="#00d4ff" stroke-width="1" stroke-opacity="0.02"/><line x1="391" y1="294" x2="478" y2="299" stroke="#00d4ff" stroke-width="1" stroke-opacity="0.092"/><line x1="391" y1="294" x2="240" y2="250" stroke="#00d4ff" stroke-width="1" stroke-opacity="0.022"/><line x1="391" y1="294" x2="444" y2="271" stroke="#00d4ff" stroke-width="1" stroke-opacity="0.122"/><line x1="391" y1="294" x2="457" y2="174" stroke="#00d4ff" stroke-width="1" stroke-opacity="0.042"/><line x1="557" y1="409" x2="478" y2="299" stroke="#00d4ff" stroke-width="1" stroke-opacity="0.044"/><line x1="557" y1="409" x2="444" y2="271" stroke="#00d4ff" stroke-width="1" stroke-opacity="0.001"/><line x1="525" y1="124" x2="444" y2="271" stroke="#00d4ff" stroke-width="1" stroke-opacity="0.011"/><line x1="525" y1="124" x2="457" y2="174" stroke="#00d4ff" stroke-width="1" stroke-opacity="0.095"/><line x1="116" y1="146" x2="240" y2="250" stroke="#00d4ff" stroke-width="1" stroke-opacity="0.017"/><line x1="116" y1="146" x2="235" y2="88" stroke="#00d4ff" stroke-width="1" stroke-opacity="0.047"/><line x1="236" y1="330" x2="240" y2="250" stroke="#00d4ff" stroke-width="1" stroke-opacity="0.1"/><line x1="236" y1="330" x2="120" y2="368" stroke="#00d4ff" stroke-width="1" stroke-opacity="0.057"/><line x1="478" y1="299" x2="444" y2="271" stroke="#00d4ff" stroke-width="1" stroke-opacity="0.136"/><line x1="478" y1="299" x2="457" y2="174" stroke="#00d4ff" stroke-width="1" stroke-opacity="0.053"/><line x1="240" y1="250" x2="120" y2="368" stroke="#00d4ff" stroke-width="1" stroke-opacity="0.011"/><line x1="240" y1="250" x2="235" y2="88" stroke="#00d4ff" stroke-width="1" stroke-opacity="0.017"/><line x1="444" y1="271" x2="457" y2="174" stroke="#00d4ff" stroke-width="1" stroke-opacity="0.082"/><circle cx="452" cy="302" r="4" fill="#00d4ff" fill-opacity="0.5"/><circle cx="64" cy="408" r="4" fill="#00d4ff" fill-opacity="0.5"/><circle cx="59" cy="139" r="2" fill="#00d4ff" fill-opacity="0.5"/><circle cx="391" cy="294" r="2" fill="#00d4ff" fill-opacity="0.5"/><circle cx="557" cy="409" r="3" fill="#00d4ff" fill-opacity="0.5"/><circle cx="525" cy="124" r="3" fill="#00d4ff" fill-opacity="0.5"/><circle cx="116" cy="146" r="2" fill="#00d4ff" fill-opacity="0.5"/><circle cx="236" cy="330" r="2" fill="#00d4ff" fill-opacity="0.5"/><circle cx="478" cy="299" r="4" fill="#00d4ff" fill-opacity="0.5"/><circle cx="240" cy="250" r="3" fill="#00d4ff" fill-opacity="0.5"/><circle cx="444" cy="271" r="3" fill="#00d4ff" fill-opacity="0.5"/><circle cx="120" cy="368" r="3" fill="#00d4ff" fill-opacity="0.5"/><circle cx="457" cy="174" r="3" fill="#00d4ff" fill-opacity="0.5"/><circle cx="235" cy="88" r="4" fill="#00d4ff" fill-opacity="0.5"/>
<rect x="0" y="0" width="640" height="480" fill="none" stroke="#243049" stroke-width="1"/>
<text x="320" y="202" font-family="Verdana,Geneva,sans-serif" font-size="16" letter-spacing="2.5" fill="#00d4ff" text-anchor="middle" font-weight="bold">WEB DEV</text>
<text x="320" y="264" font-family="Georgia,'Times New Roman',serif" font-size="40" fill="#e8eaf0" text-anchor="middle" font-weight="bold">Custom Web Development</text>
<text x="624" y="466" font-family="Verdana,Geneva,sans-serif" font-size="16" fill="#8b93a8" text-anchor="end" font-weight="bold">webnetic</text>
</svg>