<svg xmlns="http://www.w3.org/2000/svg" viewBox="0 0 600 400" width="600" height="400" role="img">
<defs><linearGradient id="g" x1="0" y1="0" x2="1" y2="1">
<stop offset="0" stop-color="#0d1120"/><stop offset="1" stop-color="#080b12"/></linearGradient>
<radialGradient id="glow" cx="0.75" cy="0.1" r="0.9">
<stop offset="0" stop-color="#00d4ff" stop-opacity="0.16"/><stop offset="0.6" stop-color="#00d4ff" stop-opacity="0"/></radialGradient></defs>
<rect width="600" height="400" fill="url(#g)"/>
<rect width="600" height="400" fill="url(#glow)"/>
<line x1="499" y1="215" x2="557" y2="81" stroke="#00d4ff" stroke-width="1" stroke-opacity="0.024"/><line x1="499" y1="215" x2="488" y2="266" stroke="#00d4ff" stroke-width="1" stroke-opacity="0.124"/><line x1="499" y1="215" x2="549" y2="230" stroke="#00d4ff" stroke-width="1" stroke-opacity="0.124"/><line x1="177" y1="151" x2="324" y2="141" stroke="#00d4ff" stroke-width="1" stroke-opacity="0.022"/><line x1="177" y1="151" x2="83" y2="143" stroke="#00d4ff" stroke-width="1" stroke-opacity="0.079"/><line x1="177" y1="151" x2="249" y2="166" stroke="#00d4ff" stroke-width="1" stroke-opacity="0.101"/><line x1="177" y1="151" x2="252" y2="276" stroke="#00d4ff" stroke-width="1" stroke-opacity="0.024"/><line x1="177" y1="151" x2="296" y2="95" stroke="#00d4ff" stroke-width="1" stroke-opacity="0.039"/><line x1="324" y1="141" x2="249" y2="166" stroke="#00d4ff" stroke-width="1" stroke-opacity="0.095"/><line x1="324" y1="141" x2="435" y2="32" stroke="#00d4ff" stroke-width="1" stroke-opacity="0.013"/><line x1="324" y1="141" x2="252" y2="276" stroke="#00d4ff" stroke-width="1" stroke-opacity="0.016"/><line x1="324" y1="141" x2="375" y2="82" stroke="#00d4ff" stroke-width="1" stroke-opacity="0.096"/><line x1="324" y1="141" x2="296" y2="95" stroke="#00d4ff" stroke-width="1" stroke-opacity="0.122"/><line x1="557" y1="81" x2="435" y2="32" stroke="#00d4ff" stroke-width="1" stroke-opacity="0.039"/><line x1="557" y1="81" x2="549" y2="230" stroke="#00d4ff" stroke-width="1" stroke-opacity="0.02"/><line x1="83" y1="143" x2="249" y2="166" stroke="#00d4ff" stroke-width="1" stroke-opacity="0.0"/><line x1="249" y1="166" x2="252" y2="276" stroke="#00d4ff" stroke-width="1" stroke-opacity="0.062"/><line x1="249" y1="166" x2="375" y2="82" stroke="#00d4ff" stroke-width="1" stroke-opacity="0.018"/><line x1="249" y1="166" x2="296" y2="95" stroke="#00d4ff" stroke-width="1" stroke-opacity="0.089"/><line x1="31" y1="347" x2="134" y2="358" stroke="#00d4ff" stroke-width="1" stroke-opacity="0.069"/><line x1="435" y1="32" x2="375" y2="82" stroke="#00d4ff" stroke-width="1" stroke-opacity="0.096"/><line x1="435" y1="32" x2="296" y2="95" stroke="#00d4ff" stroke-width="1" stroke-opacity="0.016"/><line x1="488" y1="266" x2="549" y2="230" stroke="#00d4ff" stroke-width="1" stroke-opacity="0.104"/><line x1="252" y1="276" x2="134" y2="358" stroke="#00d4ff" stroke-width="1" stroke-opacity="0.026"/><line x1="375" y1="82" x2="296" y2="95" stroke="#00d4ff" stroke-width="1" stroke-opacity="0.094"/><circle cx="499" cy="215" r="3" fill="#00d4ff" fill-opacity="0.5"/><circle cx="177" cy="151" r="3" fill="#00d4ff" fill-opacity="0.5"/><circle cx="324" cy="141" r="2" fill="#00d4ff" fill-opacity="0.5"/><circle cx="557" cy="81" r="2" fill="#00d4ff" fill-opacity="0.5"/><circle cx="83" cy="143" r="2" fill="#00d4ff" fill-opacity="0.5"/><circle cx="249" cy="166" r="4" fill="#00d4ff" fill-opacity="0.5"/><circle cx="31" cy="347" r="4" fill="#00d4ff" fill-opacity="0.5"/><circle cx="435" cy="32" r="3" fill="#00d4ff" fill-opacity="0.5"/><circle cx="488" cy="266" r="4" fill="#00d4ff" fill-opacity="0.5"/><circle cx="252" cy="276" r="2" fill="#00d4ff" fill-opacity="0.5"/><circle cx="134" cy="358" r="2" fill="#00d4ff" fill-opacity="0.5"/><circle cx="375" cy="82" r="2" fill="#00d4ff" fill-opacity="0.5"/><circle cx="549" cy="230" r="3" fill="#00d4ff" fill-opacity="0.5"/><circle cx="296" cy="95" r="4" fill="#00d4ff" fill-opacity="0.5"/>
<rect x="0" y="0" width="600" height="400" fill="none" stroke="#243049" stroke-width="1"/>
<text x="300" y="168" font-family="Verdana,Geneva,sans-serif" font-size="13" letter-spacing="2.5" fill="#00d4ff" text-anchor="middle" font-weight="bold">WEB DEV</text>
<text x="300" y="220" font-family="Georgia,'Times New Roman',serif" font-size="34" fill="#e8eaf0" text-anchor="middle" font-weight="bold">WordPress, Built for Speed</text>
<text x="584" y="386" font-family="Verdana,Geneva,sans-serif" font-size="13" fill="#8b93a8" text-anchor="end" font-weight="bold">webnetic</text>
</svg>